<svg xmlns="http://www.w3.org/2000/svg" width="71" height="70" viewBox="0 0 71 70" fill="none"><path d="M60.0836 56.2919C60.6706 58.837 59.1421 61.3627 56.5993 62.0523C54.1157 62.727 51.5023 61.3092 50.7363 58.8359C50.6121 58.4324 50.4434 58.323 50.0422 58.3321C48.923 58.3606 47.8003 58.2967 46.6822 58.3549C45.6735 58.4084 44.8494 58.1235 44.2271 57.3257C43.9661 56.9894 43.6823 56.9051 43.3005 57.1023C43.1341 57.1889 42.9472 57.2379 42.7659 57.2949C41.7344 57.6186 41.7333 57.6186 41.7333 58.7128C41.7333 59.7192 41.6877 60.7279 41.7458 61.7309C41.8142 62.9242 41.3549 63.7346 40.2379 64.1666C40.2288 63.9112 40.459 63.8839 40.6095 63.795C41.2557 63.412 41.5703 62.857 41.5658 62.1024C41.5566 60.8111 41.5578 59.5209 41.5658 58.2295C41.5692 57.5479 41.6353 57.4704 42.2872 57.2641C42.3078 57.2573 42.3157 57.2561 42.318 57.2561H42.3192C42.3226 57.255 42.3294 57.2504 42.3408 57.2459C43.3518 56.7672 44.2374 56.7603 44.9851 57.769C45.2917 58.1839 45.8547 58.1942 46.3562 58.1976C47.5518 58.2044 48.7486 58.2113 49.9442 58.1942C50.4503 58.1873 50.7295 58.3674 50.9141 58.8644C52.1006 62.0591 55.7764 63.0598 58.4195 60.9273C59.834 59.7853 60.4198 57.63 59.7964 55.8497C59.1512 54.0067 57.4484 52.729 55.5986 52.7028C53.2529 52.6697 51.7051 53.7274 50.872 55.9682C50.717 56.3842 50.4845 56.5814 50.0377 56.578C48.8785 56.5689 47.7205 56.5757 46.5625 56.5746C46.1978 56.5746 45.9049 56.4401 45.6496 56.1836C44.7628 55.2969 43.8784 54.4101 42.9905 53.5257C42.7181 53.2556 42.587 52.9455 42.587 52.5603C42.5904 50.7754 42.5813 48.9905 42.5938 47.2057C42.5973 46.5856 42.7101 46.4831 43.3335 46.4682C43.9228 46.4557 44.5121 46.4808 45.1002 46.4614C45.5926 46.4454 45.8718 46.6563 46.0245 47.1213C46.3391 48.0844 46.8896 48.8788 47.7251 49.4806C50.636 51.5767 54.6628 49.8431 55.137 46.2825C55.4379 44.0269 54.0565 41.8693 51.8932 41.215C49.6593 40.5403 47.2566 41.4886 46.3528 43.6017C46.1841 43.9972 45.9972 44.2936 45.7715 44.501C45.7966 44.452 45.8182 44.3939 45.8388 44.3255C46.5306 42.0562 48.7429 40.5688 50.9575 40.8537C53.4661 41.1763 55.2065 43.0239 55.3524 45.5199C55.4846 47.7949 53.8468 49.9012 51.5251 50.4426C49.1099 51.0045 46.591 49.5433 45.8559 47.1202C45.7453 46.7555 45.6131 46.6369 45.2438 46.6506C44.5235 46.6791 43.8008 46.6688 43.0794 46.654C42.8092 46.6483 42.7181 46.7315 42.7192 47.0085C42.7283 48.945 42.7272 50.8814 42.7192 52.8179C42.7192 53.0333 42.8127 53.1678 42.9517 53.3068C43.908 54.2563 44.8608 55.2103 45.8103 56.1677C45.9653 56.3249 46.126 56.4059 46.3573 56.4036C47.6476 56.3933 48.9389 56.3797 50.2291 56.4104C50.6224 56.4196 50.636 56.1848 50.7135 55.9363C51.3769 53.8049 53.3179 52.4315 55.537 52.517C57.7607 52.6036 59.5821 54.1149 60.0836 56.2919Z" fill="#6125E0"></path><path d="M58.5995 39.6752C56.0715 40.3671 53.4466 38.9652 52.6807 36.4736C52.553 36.0588 52.3786 35.9653 51.9797 35.9676C48.4099 35.9824 44.8402 35.9824 41.2716 35.9664C40.8578 35.9653 40.6299 36.0246 40.5136 36.4873C40.3187 37.2521 39.8765 37.9029 39.2964 38.4397C39.0912 38.6301 39.0673 38.7691 39.2029 39.0153C40.1922 40.8048 41.1701 42.5999 42.1401 44.4007C42.2643 44.6321 42.4022 44.7233 42.6667 44.7187C43.5591 44.7028 44.4515 44.7005 45.344 44.7199C45.3907 44.721 45.4306 44.7187 45.4671 44.7142C45.1559 44.8749 44.7786 44.9148 44.3022 44.8521C43.8167 44.7871 43.3163 44.8373 42.8228 44.8395C42.425 44.843 42.1401 44.6948 41.9406 44.3358C41.0299 42.6922 40.1409 41.0361 39.2348 39.3903C38.9715 38.9139 38.9556 38.5286 39.3704 38.1183C39.8332 37.6601 40.1614 37.0971 40.3575 36.4714C40.4908 36.0451 40.7678 35.8696 41.2055 35.8696C44.7946 35.8684 48.3837 35.8707 51.9717 35.8673C52.4413 35.8661 52.6932 36.0747 52.855 36.5067C53.5799 38.4397 54.9955 39.5533 57.0391 39.6901C59.8019 39.8758 61.866 37.6043 61.9606 35.4045C62.0325 33.7359 61.5047 32.3534 60.1746 31.3002C57.7549 29.3877 54.1042 30.3542 52.9496 33.2207C52.5838 34.128 52.5838 34.1303 51.6355 34.1303C48.2549 34.1314 44.8755 34.1326 41.4961 34.1303C40.6253 34.1303 40.5934 34.112 40.2845 33.3188C40.0532 32.7238 39.6953 32.212 39.2667 31.7516C38.9943 31.4587 38.9521 31.1714 39.1357 30.8227C40.0657 29.0606 41.0231 27.3122 41.9988 25.5752C42.1538 25.2994 42.392 25.174 42.7008 25.1683C43.5557 25.1523 44.4094 25.1637 45.2642 25.1626C45.7623 25.1626 45.9366 25.4851 46.086 25.8852C46.7163 27.5721 47.9244 28.5807 49.6945 28.9261C52.1541 29.4071 54.5943 27.7077 55.1061 25.1899C55.5597 22.9526 54.1909 20.5556 51.958 19.8456C49.6318 19.1059 47.1197 20.167 46.2421 22.4078C45.866 23.3674 45.3497 23.6569 44.4208 23.543C44.0275 23.4951 43.6241 23.5327 43.2251 23.5316C42.8057 23.5316 42.5937 23.3435 42.5926 22.9138C42.5869 21.0526 42.5857 19.1913 42.5926 17.3312C42.5937 16.9825 42.7499 16.7169 42.9869 16.4787C43.8725 15.5919 44.7615 14.7086 45.6437 13.8185C45.9332 13.5267 46.2706 13.4195 46.6707 13.4218C47.7534 13.4287 48.8362 13.4423 49.9179 13.4173C50.4592 13.4047 50.7374 13.6167 50.9106 14.133C51.4554 15.7504 52.5872 16.7807 54.2364 17.1933C56.7827 17.8305 59.3494 16.2222 59.9353 13.6589C60.5166 11.1149 58.9129 8.61543 56.3462 8.06492C54.0461 7.57254 51.8087 8.79779 50.9425 11.0215C50.6485 11.7783 50.6279 11.7954 49.8335 11.7988C48.7131 11.8034 47.5927 11.8102 46.4735 11.7965C45.7304 11.7863 45.0818 11.9709 44.602 12.5727C44.1803 13.1016 43.6993 13.1905 43.0428 12.9716C41.3867 12.42 41.5759 12.7368 41.5645 10.9109C41.5577 9.96149 41.544 9.01207 41.5679 8.06264C41.5907 7.20439 41.3137 6.54219 40.5114 6.15011C40.3837 6.08856 40.215 6.03613 40.2378 5.83325C41.3593 6.26294 41.8027 7.07674 41.7469 8.27008C41.6876 9.50102 41.7503 10.7377 41.7229 11.9709C41.7149 12.3288 41.8392 12.4872 42.1652 12.5385C42.2028 12.5442 42.2427 12.5488 42.2757 12.5647C43.2491 13.0263 44.1256 13.1471 44.8618 12.0963C45.1343 11.7065 45.6802 11.6563 46.1692 11.6575C47.4788 11.6586 48.7895 11.6438 50.0991 11.6666C50.4592 11.6734 50.612 11.5822 50.7225 11.2187C51.3779 9.06563 53.3657 7.6774 55.5893 7.77998C57.7583 7.88028 59.5854 9.41896 60.0823 11.5629C60.6636 14.0749 59.1352 16.6485 56.6619 17.3233C54.1373 18.0117 51.4999 16.6041 50.7408 14.1148C50.6063 13.6726 50.4205 13.5803 50.0011 13.5905C48.8442 13.6201 47.6851 13.611 46.527 13.5951C46.2011 13.5905 45.9606 13.6692 45.7258 13.9108C44.8265 14.8363 43.909 15.7447 42.9881 16.6497C42.7989 16.8366 42.7168 17.0258 42.7179 17.2959C42.7293 19.1571 42.7362 21.0172 42.7145 22.8785C42.71 23.2637 42.8262 23.3629 43.1944 23.3481C43.8771 23.3219 44.5621 23.3207 45.2448 23.3492C45.6141 23.364 45.7474 23.2432 45.8557 22.8796C46.4769 20.8052 48.4476 19.3885 50.563 19.4455C52.757 19.5048 54.608 20.9386 55.1722 23.0153C55.8629 25.5615 54.396 28.2308 51.9056 28.9569C49.3354 29.7068 46.6661 28.3209 45.8774 25.7803C45.7452 25.3541 45.5651 25.2674 45.173 25.28C44.3387 25.3039 43.5021 25.2971 42.6667 25.2811C42.4022 25.2754 42.2643 25.3677 42.1389 25.5991C41.1701 27.3999 40.1922 29.1951 39.2029 30.9845C39.0673 31.2307 39.0923 31.3686 39.2975 31.559C39.9198 32.1391 40.3518 32.8503 40.5706 33.6732C40.6447 33.9525 40.7701 34.03 41.0425 34.0288C44.7445 34.022 48.4476 34.0174 52.1495 34.0345C52.5188 34.0357 52.5735 33.8465 52.6579 33.5786C53.3178 31.4769 55.3044 30.0453 57.421 30.1365C59.6902 30.2334 61.515 31.7356 62.0245 33.9274C62.6103 36.4429 61.0899 38.9937 58.5995 39.6752Z" fill="#6125E0"></path><path d="M28.9188 24.7386C28.5906 24.2622 28.0184 24.1767 27.4691 24.5562C24.3427 26.7206 22.6604 29.7182 22.3333 33.4931C22.3287 33.5877 22.323 33.6823 22.3184 33.7769C22.2911 34.5132 22.6136 34.9555 23.2075 34.9954C23.7887 35.0352 24.2162 34.617 24.2526 33.9035C24.4236 30.6152 25.8688 28.0439 28.561 26.161C29.1115 25.7758 29.2425 25.207 28.9188 24.7386ZM28.9188 24.7386C28.5906 24.2622 28.0184 24.1767 27.4691 24.5562C24.3427 26.7206 22.6604 29.7182 22.3333 33.4931C22.3287 33.5877 22.323 33.6823 22.3184 33.7769C22.2911 34.5132 22.6136 34.9555 23.2075 34.9954C23.7887 35.0352 24.2162 34.617 24.2526 33.9035C24.4236 30.6152 25.8688 28.0439 28.561 26.161C29.1115 25.7758 29.2425 25.207 28.9188 24.7386ZM28.9188 24.7386C28.5906 24.2622 28.0184 24.1767 27.4691 24.5562C24.3427 26.7206 22.6604 29.7182 22.3333 33.4931C22.3287 33.5877 22.323 33.6823 22.3184 33.7769C22.2911 34.5132 22.6136 34.9555 23.2075 34.9954C23.7887 35.0352 24.2162 34.617 24.2526 33.9035C24.4236 30.6152 25.8688 28.0439 28.561 26.161C29.1115 25.7758 29.2425 25.207 28.9188 24.7386ZM28.9188 24.7386C28.5906 24.2622 28.0184 24.1767 27.4691 24.5562C24.3427 26.7206 22.6604 29.7182 22.3333 33.4931C22.3287 33.5877 22.323 33.6823 22.3184 33.7769C22.2911 34.5132 22.6136 34.9555 23.2075 34.9954C23.7887 35.0352 24.2162 34.617 24.2526 33.9035C24.4236 30.6152 25.8688 28.0439 28.561 26.161C29.1115 25.7758 29.2425 25.207 28.9188 24.7386ZM28.9188 24.7386C28.5906 24.2622 28.0184 24.1767 27.4691 24.5562C24.3427 26.7206 22.6604 29.7182 22.3333 33.4931C22.3287 33.5877 22.323 33.6823 22.3184 33.7769C22.2911 34.5132 22.6136 34.9555 23.2075 34.9954C23.7887 35.0352 24.2162 34.617 24.2526 33.9035C24.4236 30.6152 25.8688 28.0439 28.561 26.161C29.1115 25.7758 29.2425 25.207 28.9188 24.7386ZM28.9188 24.7386C28.5906 24.2622 28.0184 24.1767 27.4691 24.5562C24.3427 26.7206 22.6604 29.7182 22.3333 33.4931C22.3287 33.5877 22.323 33.6823 22.3184 33.7769C22.2911 34.5132 22.6136 34.9555 23.2075 34.9954C23.7887 35.0352 24.2162 34.617 24.2526 33.9035C24.4236 30.6152 25.8688 28.0439 28.561 26.161C29.1115 25.7758 29.2425 25.207 28.9188 24.7386ZM28.9188 24.7386C28.5906 24.2622 28.0184 24.1767 27.4691 24.5562C24.3427 26.7206 22.6604 29.7182 22.3333 33.4931C22.3287 33.5877 22.323 33.6823 22.3184 33.7769C22.2911 34.5132 22.6136 34.9555 23.2075 34.9954C23.7887 35.0352 24.2162 34.617 24.2526 33.9035C24.4236 30.6152 25.8688 28.0439 28.561 26.161C29.1115 25.7758 29.2425 25.207 28.9188 24.7386ZM28.9188 24.7386C28.5906 24.2622 28.0184 24.1767 27.4691 24.5562C24.3427 26.7206 22.6604 29.7182 22.3333 33.4931C22.3287 33.5877 22.323 33.6823 22.3184 33.7769C22.2911 34.5132 22.6136 34.9555 23.2075 34.9954C23.7887 35.0352 24.2162 34.617 24.2526 33.9035C24.4236 30.6152 25.8688 28.0439 28.561 26.161C29.1115 25.7758 29.2425 25.207 28.9188 24.7386ZM40.5137 36.4873C40.63 36.0246 40.8579 35.9653 41.2716 35.9664C44.8403 35.9824 48.41 35.9824 51.9798 35.9676C52.3787 35.9653 52.5531 36.0588 52.6807 36.4736C53.4467 38.9652 56.0715 40.3671 58.5995 39.6752C61.0899 38.9937 62.6104 36.4429 62.0245 33.9274C61.5151 31.7356 59.6903 30.2334 57.421 30.1365C55.3045 30.0453 53.3179 31.4769 52.6579 33.5786C52.5736 33.8465 52.5189 34.0357 52.1496 34.0345C48.4476 34.0174 44.7445 34.022 41.0426 34.0288C40.7701 34.03 40.6448 33.9525 40.5707 33.6732C40.3519 32.8503 39.9199 32.1391 39.2976 31.559C39.0924 31.3686 39.0673 31.2307 39.203 30.9845C40.1923 29.1951 41.1702 27.3999 42.139 25.5991C42.2644 25.3677 42.4023 25.2754 42.6667 25.2811C43.5022 25.2971 44.3388 25.3039 45.1731 25.28C45.5652 25.2674 45.7452 25.3541 45.8775 25.7803C46.6662 28.3209 49.3355 29.7068 51.9057 28.9569C54.3961 28.2308 55.863 25.5615 55.1723 23.0153C54.6081 20.9386 52.7571 19.5048 50.563 19.4455C48.4476 19.3885 46.477 20.8052 45.8558 22.8796C45.7475 23.2432 45.6142 23.364 45.2449 23.3492C44.5622 23.3207 43.8772 23.3219 43.1944 23.3481C42.8263 23.3629 42.71 23.2637 42.7146 22.8785C42.7363 21.0172 42.7294 19.1571 42.718 17.2959C42.7169 17.0258 42.7989 16.8366 42.9881 16.6497C43.9091 15.7447 44.8266 14.8363 45.7259 13.9108C45.9607 13.6692 46.2011 13.5905 46.5271 13.5951C47.6851 13.611 48.8443 13.6201 50.0011 13.5905C50.4206 13.5803 50.6063 13.6726 50.7408 14.1148C51.4999 16.6041 54.1374 18.0117 56.6619 17.3233C59.1352 16.6485 60.6637 14.0749 60.0824 11.5629C59.5854 9.41896 57.7584 7.88028 55.5894 7.77998C53.3657 7.6774 51.378 9.06563 50.7226 11.2187C50.612 11.5822 50.4593 11.6734 50.0992 11.6666C48.7896 11.6438 47.4788 11.6586 46.1692 11.6575C45.6803 11.6563 45.1343 11.7065 44.8619 12.0963C44.1256 13.1471 43.2491 13.0263 42.2758 12.5647C42.2427 12.5488 42.2028 12.5442 42.1652 12.5385C41.8393 12.4872 41.715 12.3288 41.723 11.9709C41.7504 10.7377 41.6877 9.50102 41.7469 8.27008C41.8028 7.07674 41.3594 6.26294 40.2379 5.83325H31.5791C30.4176 6.11477 29.9538 6.70745 29.9481 7.93612C29.9424 9.13174 29.9481 10.3274 29.9458 11.523C29.9446 12.2638 29.9446 12.2672 29.2562 12.4735C27.6879 12.9443 26.1788 13.5586 24.7359 14.3348C24.0839 14.6847 24.0805 14.6904 23.5688 14.1832C22.6923 13.3147 21.8375 12.4245 20.945 11.5731C20.2406 10.9007 19.3323 10.7229 18.588 11.0899C18.1423 11.3098 17.7639 11.6313 17.4129 11.9812C16.5398 12.8519 15.6668 13.7239 14.796 14.5981C14.0859 15.3104 13.3496 15.9988 12.6703 16.7397C11.4861 18.0288 11.5169 19.0739 12.7433 20.3083C13.5456 21.1164 14.3469 21.9268 15.163 22.7212C15.4787 23.0289 15.5573 23.2968 15.3203 23.7139C14.4711 25.2036 13.8283 26.7879 13.3656 28.4383C13.2402 28.8839 13.0396 29.0549 12.5757 29.0458C11.3231 29.0218 10.0705 29.0321 8.81675 29.0389C7.45929 29.048 6.60446 29.8812 6.59534 31.241C6.57938 33.7473 6.57938 36.2525 6.59534 38.7577C6.60446 40.1186 7.45929 40.9518 8.81675 40.9609C10.0887 40.9689 11.3607 40.9723 12.6327 40.9563C13.0441 40.9518 13.2368 41.1068 13.3485 41.5069C13.8055 43.1401 14.4495 44.6993 15.2553 46.1913C15.595 46.8216 15.5984 46.8307 15.0775 47.355C14.2227 48.2167 13.3576 49.0704 12.5039 49.9354C11.8918 50.5555 11.673 51.294 11.9226 52.1284C12.0776 52.6469 12.4515 53.0459 12.8253 53.4266C13.5821 54.1993 14.3515 54.9607 15.1174 55.7243C15.9506 56.5552 16.7609 57.4112 17.6215 58.2124C18.9265 59.4263 19.9796 59.3967 21.2322 58.1509C22.054 57.3348 22.8747 56.5176 23.6873 55.6936C23.9711 55.4052 24.2287 55.3687 24.5911 55.5739C26.0671 56.4105 27.6332 57.0373 29.2562 57.5263C29.9435 57.7326 29.9446 57.736 29.9458 58.4769C29.9481 59.6725 29.9424 60.8681 29.9481 62.0637C29.9538 63.2924 30.4176 63.8851 31.5791 64.1666H40.2379C41.3549 63.7346 41.8142 62.9242 41.7458 61.7309C41.6877 60.7279 41.7333 59.7192 41.7333 58.7128C41.7333 57.6186 41.7344 57.6186 42.7659 57.2949C42.9471 57.2379 43.134 57.1889 43.3004 57.1023C43.6823 56.9051 43.9661 56.9895 44.2271 57.3257C44.8494 58.1235 45.6734 58.4085 46.6821 58.3549C47.8002 58.2968 48.9229 58.3606 50.0422 58.3321C50.4434 58.323 50.612 58.4324 50.7363 58.8359C51.5022 61.3092 54.1157 62.7271 56.5993 62.0523C59.1421 61.3628 60.6705 58.837 60.0835 56.2919C59.582 54.115 57.7607 52.6036 55.537 52.517C53.3179 52.4315 51.3768 53.805 50.7135 55.9363C50.636 56.1848 50.6223 56.4196 50.2291 56.4105C48.9389 56.3797 47.6475 56.3934 46.3573 56.4036C46.1259 56.4059 45.9652 56.325 45.8102 56.1677C44.8608 55.2103 43.9079 54.2563 42.9517 53.3069C42.8126 53.1678 42.7192 53.0333 42.7192 52.8179C42.7271 50.8814 42.7283 48.945 42.7192 47.0085C42.718 46.7316 42.8092 46.6483 43.0793 46.654C43.8008 46.6689 44.5234 46.6791 45.2437 46.6506C45.613 46.637 45.7452 46.7555 45.8558 47.1202C46.5909 49.5434 49.1098 51.0045 51.525 50.4426C53.8467 49.9012 55.4846 47.795 55.3523 45.52C55.2065 43.0239 53.466 41.1763 50.9574 40.8538C48.7428 40.5688 46.5305 42.0562 45.8387 44.3255C45.8182 44.3939 45.7965 44.452 45.7715 44.501C45.7076 44.6298 45.621 44.6959 45.4683 44.7142H45.4671C45.4307 44.7187 45.3908 44.721 45.344 44.7199C44.4516 44.7005 43.5592 44.7028 42.6667 44.7187C42.4023 44.7233 42.2644 44.6321 42.1402 44.4007C41.1702 42.5999 40.1923 40.8048 39.203 39.0153C39.0673 38.7691 39.0913 38.6301 39.2964 38.4397C39.8766 37.9029 40.3188 37.2521 40.5137 36.4873ZM40.7804 46.1298C40.777 47.2501 40.7667 48.3694 40.7872 49.4898C40.7929 49.834 40.5456 49.8374 40.3484 49.8967C38.3436 50.5008 36.2852 50.7492 34.2176 50.4586C27.6902 49.5399 23.1847 45.9964 21.0875 39.73C18.0318 30.597 24.1956 20.8987 33.7412 19.5982C35.9546 19.2962 38.1259 19.4683 40.2732 20.0701C40.6664 20.1807 40.8249 20.3505 40.7895 20.7711C40.7474 21.26 40.7793 21.757 40.7793 22.4818C41.03 23.5111 40.5502 24.5676 39.9279 25.6242C39.1015 27.0261 38.3573 28.4759 37.5913 29.912C37.4227 30.2288 37.2825 30.3485 36.8607 30.2653C34.922 29.8812 33.2796 30.4785 32.0749 32.0399C30.8553 33.6197 30.6912 35.3852 31.5802 37.1712C32.4612 38.9412 33.9749 39.7972 35.9364 39.8599C36.2544 39.8701 36.5895 39.8314 36.8915 39.7345C37.2312 39.624 37.3839 39.7083 37.5492 40.0183C38.5476 41.8875 39.5711 43.7442 40.5855 45.6055C40.6755 45.7707 40.7816 45.9269 40.7804 46.1298ZM38.828 34.9919C38.8337 36.5979 37.4876 37.9371 35.8862 37.92C34.294 37.9029 32.9947 36.5956 32.989 35.0056C32.9833 33.3985 34.3259 32.0616 35.9296 32.0798C37.523 32.0969 38.8223 33.402 38.828 34.9919ZM57.3139 32.0787C58.9096 32.0912 60.1975 33.3883 60.2009 34.9885C60.2055 36.6116 58.8811 37.9394 57.2774 37.9211C55.6863 37.904 54.3824 36.5956 54.3767 35.009C54.371 33.4031 55.7102 32.0662 57.3139 32.0787ZM53.4113 24.2998C53.4159 25.9023 52.0675 27.2461 50.4707 27.229C48.8842 27.2119 47.578 25.8989 47.5723 24.3146C47.5654 22.7041 48.8967 21.3842 50.5129 21.3979C52.1154 21.4105 53.4068 22.703 53.4113 24.2998ZM55.39 9.71758C56.9868 9.73924 58.261 11.0409 58.2576 12.6468C58.2531 14.2596 56.9834 15.5338 55.3717 15.5429C53.7407 15.5509 52.43 14.2493 52.4345 12.6274C52.4402 11.0215 53.7863 9.69593 55.39 9.71758ZM39.7934 56.9678C39.7865 58.543 39.7786 60.1193 39.8002 61.6944C39.8048 62.0888 39.7523 62.2461 39.2907 62.2392C37.0329 62.2096 34.7727 62.2153 32.5137 62.2358C32.1136 62.2392 32.0099 62.1389 32.0167 61.7389C32.0407 60.182 32.0293 58.625 32.0259 57.0681C32.0236 56.2953 31.8127 56.0093 31.0605 55.828C28.7604 55.2741 26.596 54.3976 24.5854 53.145C23.954 52.7518 23.6121 52.8054 23.0741 53.3399C21.956 54.4501 20.8333 55.5556 19.7346 56.6863C19.469 56.9598 19.3345 56.9336 19.0815 56.6772C17.4699 55.0405 15.8457 53.4163 14.2124 51.8012C13.9753 51.5664 13.94 51.4468 14.2033 51.1915C15.3351 50.095 16.4407 48.9723 17.5519 47.8554C18.107 47.2969 18.1594 46.9538 17.7503 46.2973C16.5068 44.3027 15.6371 42.1554 15.0855 39.8736C14.8963 39.0894 14.6227 38.8842 13.8089 38.8831C12.252 38.8808 10.6951 38.8694 9.1393 38.8922C8.7609 38.8968 8.672 38.7874 8.67428 38.4204C8.69138 36.1431 8.69593 33.8647 8.672 31.5863C8.66744 31.1589 8.81789 31.1042 9.18831 31.1087C10.7076 31.1293 12.2269 31.1179 13.7451 31.1167C14.6364 31.1167 14.8929 30.9275 15.0992 30.0773C15.6474 27.8148 16.5136 25.6869 17.7468 23.7082C18.1594 23.046 18.1081 22.7041 17.5576 22.149C16.4464 21.0321 15.3396 19.9105 14.2113 18.8107C13.9617 18.5679 13.9537 18.4459 14.2056 18.1975C15.8571 16.5733 17.4972 14.9377 19.1214 13.2873C19.3835 13.0206 19.5044 13.0765 19.7312 13.3079C20.8196 14.4203 21.9252 15.5167 23.0274 16.6155C23.6178 17.2047 23.9415 17.2549 24.6288 16.8297C26.5937 15.6159 28.6954 14.7371 30.9465 14.2105C31.8344 14.002 32.0259 13.7375 32.0259 12.8235C32.027 11.2859 32.0361 9.74721 32.019 8.20967C32.0145 7.87002 32.0863 7.76174 32.451 7.76402C34.7476 7.78339 37.0454 7.78453 39.342 7.76402C39.733 7.7606 39.8036 7.88711 39.7991 8.24158C39.7808 9.7985 39.79 11.3554 39.7922 12.9124C39.7934 13.7159 39.9997 13.9689 40.7941 14.1786C41.2329 14.2949 41.6694 14.4214 42.106 14.5468C42.1379 14.5559 42.1618 14.5946 42.2085 14.6391C42.1698 14.6927 42.139 14.7622 42.0866 14.8032C41.103 15.5714 40.5866 16.5357 40.7758 17.8179C40.842 18.2647 40.5627 18.1291 40.3177 18.0664C37.1366 17.2526 33.9452 17.2309 30.8325 18.2693C23.8936 20.5841 19.6525 25.3746 18.6142 32.6246C17.2829 41.916 23.2872 50.2215 32.484 52.1591C35.1044 52.7108 37.7258 52.6025 40.3222 51.9346C40.516 51.8856 40.8317 51.6918 40.7713 52.1295C40.5821 53.5018 41.1269 54.5276 42.3852 55.3813C41.7025 55.567 41.1964 55.7084 40.6881 55.8429C40.0464 56.0127 39.7968 56.3067 39.7934 56.9678ZM55.3603 54.4569C56.9959 54.4603 58.2724 55.7562 58.2576 57.3986C58.2428 58.9932 56.9332 60.2902 55.3432 60.2834C53.7373 60.2777 52.4174 58.9351 52.4345 57.3257C52.4528 55.7289 53.7544 54.4535 55.3603 54.4569ZM50.4878 42.7709C52.0892 42.7674 53.4296 44.1169 53.4113 45.716C53.3919 47.3162 52.0972 48.5985 50.4969 48.6019C48.8773 48.6042 47.5506 47.2741 47.5711 45.6693C47.5917 44.0793 48.9047 42.7743 50.4878 42.7709ZM27.4691 24.5562C24.3427 26.7206 22.6604 29.7182 22.3333 33.4931C22.3287 33.5877 22.323 33.6823 22.3184 33.7769C22.2911 34.5132 22.6136 34.9555 23.2075 34.9954C23.7887 35.0352 24.2162 34.617 24.2526 33.9035C24.4236 30.6152 25.8688 28.0439 28.561 26.161C29.1115 25.7758 29.2425 25.207 28.9188 24.7386C28.5906 24.2622 28.0184 24.1767 27.4691 24.5562ZM28.9188 24.7386C28.5906 24.2622 28.0184 24.1767 27.4691 24.5562C24.3427 26.7206 22.6604 29.7182 22.3333 33.4931C22.3287 33.5877 22.323 33.6823 22.3184 33.7769C22.2911 34.5132 22.6136 34.9555 23.2075 34.9954C23.7887 35.0352 24.2162 34.617 24.2526 33.9035C24.4236 30.6152 25.8688 28.0439 28.561 26.161C29.1115 25.7758 29.2425 25.207 28.9188 24.7386ZM28.9188 24.7386C28.5906 24.2622 28.0184 24.1767 27.4691 24.5562C24.3427 26.7206 22.6604 29.7182 22.3333 33.4931C22.3287 33.5877 22.323 33.6823 22.3184 33.7769C22.2911 34.5132 22.6136 34.9555 23.2075 34.9954C23.7887 35.0352 24.2162 34.617 24.2526 33.9035C24.4236 30.6152 25.8688 28.0439 28.561 26.161C29.1115 25.7758 29.2425 25.207 28.9188 24.7386ZM28.9188 24.7386C28.5906 24.2622 28.0184 24.1767 27.4691 24.5562C24.3427 26.7206 22.6604 29.7182 22.3333 33.4931C22.3287 33.5877 22.323 33.6823 22.3184 33.7769C22.2911 34.5132 22.6136 34.9555 23.2075 34.9954C23.7887 35.0352 24.2162 34.617 24.2526 33.9035C24.4236 30.6152 25.8688 28.0439 28.561 26.161C29.1115 25.7758 29.2425 25.207 28.9188 24.7386ZM28.9188 24.7386C28.5906 24.2622 28.0184 24.1767 27.4691 24.5562C24.3427 26.7206 22.6604 29.7182 22.3333 33.4931C22.3287 33.5877 22.323 33.6823 22.3184 33.7769C22.2911 34.5132 22.6136 34.9555 23.2075 34.9954C23.7887 35.0352 24.2162 34.617 24.2526 33.9035C24.4236 30.6152 25.8688 28.0439 28.561 26.161C29.1115 25.7758 29.2425 25.207 28.9188 24.7386ZM28.9188 24.7386C28.5906 24.2622 28.0184 24.1767 27.4691 24.5562C24.3427 26.7206 22.6604 29.7182 22.3333 33.4931C22.3287 33.5877 22.323 33.6823 22.3184 33.7769C22.2911 34.5132 22.6136 34.9555 23.2075 34.9954C23.7887 35.0352 24.2162 34.617 24.2526 33.9035C24.4236 30.6152 25.8688 28.0439 28.561 26.161C29.1115 25.7758 29.2425 25.207 28.9188 24.7386ZM28.9188 24.7386C28.5906 24.2622 28.0184 24.1767 27.4691 24.5562C24.3427 26.7206 22.6604 29.7182 22.3333 33.4931C22.3287 33.5877 22.323 33.6823 22.3184 33.7769C22.2911 34.5132 22.6136 34.9555 23.2075 34.9954C23.7887 35.0352 24.2162 34.617 24.2526 33.9035C24.4236 30.6152 25.8688 28.0439 28.561 26.161C29.1115 25.7758 29.2425 25.207 28.9188 24.7386Z" fill="#6125E0"></path><path d="M31.5791 64.1666C30.4176 63.8851 29.9538 63.2924 29.9481 62.0637C29.9424 60.8681 29.9481 59.6725 29.9458 58.4769C29.9446 57.736 29.9435 57.7326 29.2562 57.5263C27.6332 57.0373 26.0671 56.4105 24.5911 55.5739C24.2287 55.3687 23.9711 55.4052 23.6873 55.6936C22.8747 56.5176 22.054 57.3348 21.2322 58.1509C19.9796 59.3967 18.9265 59.4263 17.6215 58.2124C16.7609 57.4112 15.9506 56.5552 15.1174 55.7243C14.3515 54.9607 13.5821 54.1993 12.8253 53.4266C12.4515 53.0459 12.0776 52.6469 11.9226 52.1284C11.673 51.294 11.8918 50.5555 12.5039 49.9354C13.3576 49.0704 14.2227 48.2167 15.0775 47.355C15.5984 46.8307 15.595 46.8216 15.2553 46.1913C14.4495 44.6993 13.8055 43.1401 13.3485 41.5069C13.2368 41.1068 13.0441 40.9518 12.6327 40.9563C11.3607 40.9723 10.0887 40.9689 8.81675 40.9609C7.45929 40.9518 6.60446 40.1186 6.59534 38.7577C6.57938 36.2525 6.57938 33.7473 6.59534 31.241C6.60446 29.8812 7.45929 29.048 8.81675 29.0389C10.0705 29.0321 11.3231 29.0218 12.5757 29.0458C13.0396 29.0549 13.2402 28.8839 13.3656 28.4383C13.8283 26.7879 14.4711 25.2036 15.3203 23.7139C15.5573 23.2968 15.4787 23.0289 15.163 22.7212C14.3469 21.9268 13.5456 21.1164 12.7433 20.3083C11.5169 19.0739 11.4861 18.0288 12.6703 16.7397C13.3496 15.9988 14.0859 15.3104 14.796 14.5981C15.6668 13.7239 16.5398 12.8519 17.4129 11.9812C17.7639 11.6313 18.1423 11.3098 18.588 11.0899C19.3323 10.7229 20.2406 10.9007 20.945 11.5731C21.8375 12.4245 22.6923 13.3147 23.5688 14.1832C24.0805 14.6904 24.0839 14.6847 24.7359 14.3348C26.1788 13.5586 27.6879 12.9443 29.2562 12.4735C29.9446 12.2672 29.9446 12.2638 29.9458 11.523C29.9481 10.3274 29.9424 9.13174 29.9481 7.93612C29.9538 6.70745 30.4176 6.11477 31.5791 5.83325C30.4598 6.26408 30.013 7.07446 30.07 8.26894C30.1316 9.51926 30.0711 10.7753 30.0928 12.0279C30.0985 12.3379 29.9822 12.4599 29.7087 12.5294C27.844 13.0047 26.0865 13.7455 24.4225 14.7052C24.1375 14.8693 23.9768 14.834 23.7511 14.6015C22.8256 13.6475 21.8796 12.714 20.937 11.7783C19.9511 10.7992 18.8763 10.7924 17.895 11.7692C16.1455 13.5107 14.3993 15.2546 12.6589 17.0053C11.7083 17.9615 11.7163 19.0454 12.668 20.0074C13.6163 20.9648 14.5657 21.9222 15.5288 22.8637C15.7408 23.0711 15.7807 23.2193 15.6257 23.4883C14.6649 25.1523 13.9241 26.911 13.4431 28.7722C13.3656 29.0743 13.2425 29.1905 12.9062 29.1848C11.5397 29.1609 10.1719 29.1689 8.80535 29.1768C7.53793 29.1848 6.74693 29.9735 6.74465 31.2387C6.73781 33.745 6.73781 36.2514 6.74465 38.7577C6.74693 40.024 7.53679 40.815 8.80307 40.823C10.1697 40.831 11.5374 40.8389 12.904 40.815C13.2379 40.8093 13.3644 40.9222 13.4431 41.2253C13.9241 43.0877 14.6649 44.8452 15.6246 46.5093C15.7785 46.7771 15.7431 46.9265 15.5311 47.135C14.5669 48.0765 13.6175 49.0339 12.6692 49.9913C11.7175 50.951 11.7083 52.0372 12.6589 52.9923C14.4119 54.7567 16.1694 56.5165 17.9349 58.2683C18.8684 59.1938 19.9603 59.1869 20.896 58.2626C21.8546 57.3143 22.812 56.366 23.75 55.3983C23.9768 55.1647 24.1387 55.1305 24.4225 55.2946C26.0865 56.2543 27.8452 56.9929 29.7087 57.4704C29.9822 57.54 30.0985 57.6619 30.0928 57.9719C30.0711 59.2246 30.1316 60.4806 30.07 61.7309C30.0119 62.9265 30.4644 63.7346 31.5791 64.1666Z" fill="#6125E0"></path><path d="M28.5609 26.161C25.8688 28.0439 24.4235 30.6152 24.2526 33.9035C24.2161 34.617 23.7887 35.0353 23.2074 34.9954C22.6136 34.9555 22.291 34.5132 22.3184 33.777C22.3229 33.6824 22.3286 33.5878 22.3332 33.4932C22.6603 29.7182 24.3426 26.7207 27.469 24.5562C28.0184 24.1767 28.5905 24.2622 28.9188 24.7386C29.2425 25.207 29.1114 25.7758 28.5609 26.161Z" fill="#6125E0"></path><path d="M28.5609 26.161C25.8688 28.0439 24.4235 30.6152 24.2526 33.9035C24.2161 34.617 23.7887 35.0353 23.2074 34.9954C22.6136 34.9555 22.291 34.5132 22.3184 33.777C22.3229 33.6824 22.3286 33.5878 22.3332 33.4932C22.6603 29.7182 24.3426 26.7207 27.469 24.5562C28.0184 24.1767 28.5905 24.2622 28.9188 24.7386C29.2425 25.207 29.1114 25.7758 28.5609 26.161Z" fill="#6125E0"></path></svg>