<svg xmlns="http://www.w3.org/2000/svg" width="71" height="70" viewBox="0 0 71 70" fill="none"><path d="M62.7592 35.1186C62.4336 35.0364 62.0851 35.0105 61.7472 35.009C58.8223 34.9999 55.8974 35.0044 52.974 35.0044H52.3044C52.2938 34.7899 52.277 34.6073 52.277 34.4246C52.2755 30.9503 52.2846 27.4761 52.2649 24.0018C52.2618 23.562 52.4003 23.387 52.8081 23.2485C54.5476 22.6611 56.2718 22.0341 58.104 21.3843V22.9654C58.104 23.9713 58.0964 24.9788 58.1086 25.9847C58.1116 26.2738 58.0523 26.4488 57.7586 26.6025C56.7116 27.1534 56.1926 28.0589 56.1637 29.2368C56.1485 29.844 56.1485 30.4512 56.1637 31.0584C56.1942 32.2469 57.0022 33.0428 58.1923 33.0611C58.8193 33.0702 59.4463 33.0778 60.0732 33.0581C61.1507 33.0261 61.9359 32.2637 61.9816 31.1893C62.0105 30.5075 62.0044 29.8227 61.9877 29.1394C61.9603 27.9965 61.4231 27.1428 60.4248 26.6102C60.1204 26.4473 60.0398 26.2693 60.0428 25.9527C60.055 24.3579 60.0595 22.763 60.0398 21.1682C60.0352 20.8014 60.1524 20.6371 60.5009 20.5229C61.455 20.2125 62.397 19.8625 63.3421 19.5201C64.3602 19.1503 64.9095 18.4472 64.9156 17.5189C64.9202 16.5906 64.38 15.8677 63.3619 15.5055C54.9128 12.5076 46.4637 9.51266 38.0116 6.5223C35.3956 5.59705 36.0774 5.61683 33.5649 6.50404C25.131 9.48526 16.7002 12.4787 8.2618 15.4462C7.44459 15.7338 6.91957 16.2451 6.58325 17.0045V17.9161C6.88 18.8505 7.55417 19.3283 8.45964 19.6403C11.9004 20.8258 15.323 22.0599 18.7531 23.2698C19.0332 23.3702 19.2386 23.4448 19.2371 23.8359C19.2188 27.4608 19.2264 31.0858 19.2249 34.7123C19.2249 34.7853 19.2112 34.8584 19.196 35.0044H10.1549C8.07919 35.0044 7.36698 35.4808 6.58325 37.3967V38.535C6.74761 38.8698 6.87696 39.229 7.08393 39.5349C7.64091 40.3566 8.42616 40.804 9.42903 40.8223C10.0895 40.8345 10.75 40.8254 11.4409 40.8254C11.4896 41.2834 11.5246 41.6943 11.5763 42.1021C11.7163 43.2192 12.4529 44.0151 13.5623 44.2312C14.2319 44.3605 14.906 44.4792 15.5817 44.5675C15.9104 44.6101 16.0732 44.7349 16.1569 45.0681C16.6013 46.8243 17.2922 48.4831 18.222 50.0368C18.4001 50.3336 18.3681 50.5299 18.1718 50.7856C17.7685 51.3121 17.3805 51.8524 17.0092 52.4017C16.3046 53.4411 16.3243 54.5703 17.1689 55.488C18.1307 56.5334 19.1442 57.5363 20.1912 58.4966C21.0145 59.2514 22.1468 59.2894 23.0933 58.6777C23.6975 58.2866 24.2819 57.862 24.8556 57.4267C25.1006 57.2426 25.2802 57.2137 25.5587 57.3811C27.1124 58.3124 28.7697 59.0079 30.5258 59.4477C30.8956 59.5405 31.0067 59.7368 31.0554 60.064C31.1483 60.7017 31.2411 61.3408 31.3689 61.9709C31.6337 63.2659 32.4631 63.972 33.7734 64.0618C33.9788 64.077 34.1812 64.1303 34.3836 64.1668H37.2324C37.4151 64.1303 37.5962 64.0755 37.7788 64.0618C39.0343 63.9736 39.856 63.2811 40.1163 62.0393C40.2563 61.3728 40.3537 60.6956 40.4587 60.0214C40.5059 59.7125 40.6215 59.5451 40.967 59.4568C42.7201 59.0064 44.3819 58.3185 45.9372 57.3887C46.2035 57.2289 46.3876 57.2183 46.6418 57.4191C47.147 57.8178 47.6827 58.1816 48.2108 58.5498C49.3065 59.3138 50.4691 59.291 51.4431 58.3916C52.4323 57.48 53.3879 56.5258 54.2965 55.5351C55.1913 54.5612 55.2156 53.4579 54.4639 52.3606C54.0986 51.828 53.7243 51.3015 53.3332 50.7886C53.1399 50.536 53.0973 50.3412 53.2769 50.0399C54.2082 48.4861 54.8991 46.8258 55.345 45.0697C55.4287 44.7364 55.5885 44.6101 55.9187 44.569C56.5579 44.4883 57.194 44.3681 57.8271 44.2479C59.1054 44.0059 59.8054 43.2283 59.9363 41.9256C59.9698 41.5863 60.0048 41.2469 60.0474 40.8238C60.7428 40.8238 61.4383 40.8406 62.1338 40.8193C63.5749 40.7751 64.7619 39.6475 64.908 38.2109C65.0496 36.8017 64.135 35.4671 62.7592 35.1186ZM60.0413 29.2185C60.058 29.8227 60.0459 30.4284 60.0459 31.0782H58.1101C58.1101 30.4055 58.0842 29.7816 58.1177 29.1607C58.1482 28.5778 58.5895 28.1837 59.113 28.202C59.6426 28.2187 60.0245 28.622 60.0413 29.2185ZM19.1945 21.3675C15.6213 20.1014 12.0739 18.8444 8.52812 17.5874C8.52964 17.5432 8.53269 17.4991 8.53421 17.4534C8.70313 17.3834 8.86748 17.3043 9.03945 17.2434C17.8264 14.1329 26.6133 11.0223 35.4063 7.92541C35.6315 7.84628 35.9328 7.85084 36.1596 7.92998C44.951 11.0314 53.7364 14.1466 62.5234 17.2602C62.6755 17.315 62.8201 17.3941 63.1214 17.5326C59.431 18.8429 55.8898 20.1014 52.3912 21.3432C52.2283 20.7329 52.1385 20.147 51.9148 19.6175C51.4872 18.607 50.6943 17.9587 49.6671 17.5706C46.7833 16.481 43.7732 16.0062 40.7219 15.7597C37.0255 15.4599 33.3275 15.4842 29.6356 15.8662C27.0835 16.131 24.5756 16.6028 22.1422 17.4504C20.3039 18.0896 19.3101 19.3298 19.1945 21.3675ZM50.3322 34.9786H21.1667V34.3775C21.1667 30.1057 21.1667 25.8356 21.1683 21.5654C21.1683 20.3114 21.5761 19.7301 22.7509 19.3055C25.3943 18.3498 28.1442 17.9161 30.9306 17.6954C34.5328 17.4124 38.1364 17.4291 41.7324 17.805C44.2099 18.0637 46.6494 18.502 48.9884 19.3968C49.8163 19.7118 50.32 20.3068 50.3246 21.194C50.3428 25.7671 50.3322 30.3401 50.3322 34.9786ZM58.0249 41.6654C58.0234 42.1067 57.7966 42.3106 57.3751 42.373C56.5868 42.4902 55.8031 42.6363 55.0163 42.7535C54.0073 42.9026 53.8521 43.0381 53.6193 44.0181C53.1475 45.9888 52.3881 47.8394 51.3061 49.5544C50.772 50.4006 50.7811 50.5543 51.3792 51.3852C51.8661 52.0639 52.344 52.7487 52.8431 53.4183C53.0897 53.7485 53.0882 54.0316 52.7944 54.3238C51.9346 55.1806 51.0778 56.0404 50.2195 56.8987C49.9319 57.1878 49.6367 57.1909 49.3065 56.9489C48.5562 56.3995 47.7892 55.873 47.0405 55.3236C46.587 54.9903 46.1533 54.966 45.6754 55.2749C43.7945 56.4969 41.7583 57.343 39.5639 57.8102C39.0647 57.9152 38.7862 58.2348 38.7071 58.7477C38.5686 59.6486 38.389 60.5419 38.2673 61.4428C38.2018 61.9282 37.9903 62.1474 37.4957 62.1413C36.3026 62.1246 35.108 62.1276 33.9149 62.1322C33.4858 62.1337 33.3138 61.9024 33.2514 61.5113C33.1083 60.5936 32.9379 59.679 32.8009 58.7598C32.7203 58.2196 32.4235 57.9076 31.9031 57.7965C29.7086 57.3263 27.6755 56.468 25.793 55.2521C25.3319 54.9553 24.9104 54.9979 24.4782 55.313C23.7431 55.8502 22.9868 56.36 22.2594 56.9078C21.8942 57.1833 21.5898 57.2046 21.2596 56.8713C20.4317 56.0373 19.5993 55.2064 18.7608 54.3816C18.4062 54.0346 18.4336 53.7181 18.7242 53.3361C19.2629 52.6254 19.756 51.8813 20.2902 51.1675C20.6447 50.6943 20.6584 50.2499 20.3358 49.7538C19.1351 47.9078 18.2966 45.9082 17.8385 43.7503C17.7244 43.207 17.4079 42.892 16.8433 42.8098C16.1128 42.7017 15.3854 42.5678 14.6564 42.44C13.439 42.2285 13.3812 42.1508 13.4725 40.8604H19.2371C19.6556 45.8184 21.7496 49.8908 25.6774 52.9511C28.7027 55.3099 32.177 56.4497 36.0043 56.3858C40.3004 56.3113 44.0456 54.7818 47.1607 51.8113C50.2759 48.8422 51.9255 45.1595 52.2664 40.8588H58.0782C58.0584 41.148 58.0264 41.4067 58.0249 41.6654ZM35.5858 49.5894C38.1029 49.5849 40.3202 48.7935 42.2042 47.1302C44.0897 45.4653 45.12 43.3379 45.4426 40.8573H50.1967C50.2211 46.2567 45.4609 54.0696 36.3163 54.4379C27.4594 54.7955 21.4833 47.5928 21.2778 40.8756H26.0243C26.8126 46.8441 31.8726 49.5955 35.5858 49.5894ZM28.0925 40.868H43.4095C43.2177 43.8431 40.4206 47.6537 35.7228 47.6385C31.1011 47.6233 28.2918 43.8766 28.0925 40.868ZM61.9512 38.8835C61.7609 38.8911 61.5707 38.8866 61.382 38.8866H9.94492C9.00292 38.8866 8.54943 38.5837 8.52964 37.9461C8.51138 37.2902 8.99988 36.9447 9.94949 36.9447H61.557C61.6909 36.9447 61.8233 36.9387 61.9557 36.9478C62.566 36.9843 62.9906 37.4059 62.9723 37.9507C62.954 38.4818 62.5447 38.8592 61.9512 38.8835Z" fill="#6125E0"></path></svg>