<svg xmlns="http://www.w3.org/2000/svg" width="71" height="70" viewBox="0 0 71 70" fill="none"><path d="M53.5607 39.8094C53.2008 39.767 53.1096 39.6428 53.1237 39.3002C53.1505 38.6149 53.1316 37.928 53.1316 37.2428C53.1285 35.1696 52.0141 34.0568 49.9347 34.0568C45.5244 34.0553 41.1156 34.0505 36.7053 34.0663C36.3077 34.0663 36.1678 33.9924 36.1851 33.5649C36.2212 32.6643 36.2196 31.7605 36.1851 30.8599C36.1693 30.4167 36.2715 30.2784 36.7477 30.2799C40.8626 30.3019 44.979 30.2894 49.0954 30.2957C49.864 30.2957 50.6152 30.2092 51.3508 29.9782C54.1862 29.0854 56.0503 26.4166 55.945 23.4004C55.8444 20.499 53.7493 18.0078 50.8086 17.3005C50.5209 17.2313 50.3103 17.2172 50.2883 16.7897C50.0148 11.419 44.5247 8.07277 39.646 10.3015C39.25 10.4823 39.1085 10.3848 38.868 10.0752C36.2574 6.71635 32.8247 5.26091 28.6375 6.03736C23.4476 7.00083 20.0338 11.4222 20.224 16.7032C20.2397 17.1119 20.1234 17.203 19.7446 17.2863C16.829 17.9339 14.6852 20.4628 14.5657 23.3501C14.4086 27.1537 17.321 30.2579 21.1293 30.2846C25.3432 30.3145 29.557 30.2988 33.7709 30.2831C34.1842 30.2815 34.3524 30.3412 34.3273 30.8112C34.2817 31.6709 34.2848 32.5354 34.3257 33.3967C34.3493 33.9059 34.2361 34.0741 33.6781 34.071C29.0148 34.0443 24.3483 34.1056 19.6849 34.0333C17.6919 34.0018 16.2428 35.4132 16.4471 37.3072C16.499 37.796 16.2884 37.8306 15.8891 37.8274C13.5771 37.8117 11.2635 37.8102 8.95146 37.8227C7.31055 37.8322 6.11131 39.0455 6.09088 40.6912C6.08302 41.279 6.08617 41.8684 6.09088 42.4562C6.10031 43.6712 6.66614 44.5514 7.75222 45.0716C8.04613 45.2131 8.18759 45.3121 8.06342 45.6579C7.91253 46.0712 7.92668 46.5082 8.06185 46.9278C8.15301 47.2123 8.11057 47.3443 7.79622 47.4858C6.67557 47.9903 6.10031 48.8878 6.08931 50.1279C6.08617 50.6764 6.09245 51.225 6.08931 51.7735C6.08145 53.0624 6.65514 53.9912 7.8308 54.5115C8.12315 54.6388 8.14358 54.7818 8.06499 55.0333C7.93297 55.4545 7.91725 55.8868 8.05556 56.3049C8.15773 56.6192 8.09957 56.7528 7.77108 56.9037C6.67871 57.4067 6.1066 58.2884 6.09088 59.5049C6.08302 60.1321 6.07831 60.7592 6.09245 61.3863C6.13017 62.9203 7.33413 64.151 8.8713 64.1557C14.5359 64.1699 20.2004 64.1699 25.865 64.1557C27.432 64.1526 28.636 62.9203 28.6658 61.3486C28.6784 60.7607 28.669 60.1729 28.669 59.5851C28.669 58.3214 28.1 57.3988 26.9511 56.8911C26.6163 56.7434 26.6194 56.5941 26.6996 56.3269C26.8269 55.9041 26.8316 55.475 26.6964 55.0538C26.6053 54.7708 26.6446 54.6388 26.9605 54.4958C28.0796 53.9913 28.6564 53.0938 28.669 51.8537C28.6737 51.3051 28.6674 50.7566 28.669 50.2081C28.6753 48.9208 28.1032 47.9903 26.9259 47.4701C26.6367 47.3428 26.6131 47.2013 26.6917 46.9483C26.8253 46.5286 26.8395 46.0964 26.7027 45.6767C26.6006 45.3655 26.654 45.2288 26.9856 45.0763C28.078 44.5749 28.6501 43.6916 28.6674 42.4767C28.6768 41.8307 28.6831 41.1831 28.6627 40.5371C28.6234 39.3002 27.7747 38.255 26.5817 37.9217C26.2548 37.8306 25.9263 37.8196 25.5931 37.8196C23.3188 37.8196 21.046 37.8227 18.7717 37.8117C18.6177 37.8117 18.3851 37.9563 18.3143 37.6247C18.0817 36.526 18.5501 35.9382 19.688 35.9382H34.7988C39.8551 35.9382 44.9114 35.9366 49.9677 35.9382C50.9595 35.9382 51.2471 36.2321 51.2487 37.2396C51.2502 37.906 51.2282 38.574 51.2581 39.2389C51.2754 39.6239 51.1795 39.7733 50.763 39.8157C43.9385 40.5214 38.9293 47.1416 40.1081 53.8797C41.2539 60.4307 47.071 64.8049 53.6519 64.063C59.4846 63.406 64.1307 58.4534 64.4089 52.5971C64.7169 46.0932 60.0489 40.5843 53.5607 39.8094ZM26.7876 59.7941C26.7892 60.2641 26.7939 60.734 26.786 61.204C26.7719 61.9254 26.423 62.2759 25.6937 62.2791C23.6174 62.2853 21.5427 62.2806 19.4664 62.2806C16.0605 62.2806 12.6529 62.2822 9.24694 62.2806C8.28032 62.2806 7.97383 61.9804 7.97069 61.0327C7.96912 60.5627 7.96597 60.0928 7.97226 59.6228C7.98326 58.8637 8.32433 58.521 9.09448 58.5194C11.8545 58.5147 14.616 58.5179 17.376 58.5179H25.4815C26.4921 58.5179 26.7845 58.8071 26.7876 59.7941ZM9.85678 55.6777C9.86778 55.0915 10.2922 54.7567 11.0403 54.7551C13.1747 54.7535 15.3076 54.7551 17.4404 54.7551C19.5356 54.7551 21.6291 54.7535 23.7243 54.7551C24.4693 54.7567 24.8937 55.0962 24.9015 55.684C24.9109 56.275 24.4819 56.6349 23.7463 56.6349C19.4994 56.6381 15.2526 56.6381 11.0042 56.6349C10.2717 56.6349 9.8442 56.2703 9.85678 55.6777ZM26.7876 50.3369C26.7892 50.8258 26.7955 51.3161 26.786 51.805C26.7719 52.4997 26.4261 52.869 25.7424 52.869C20.1627 52.8753 14.5814 52.8753 9.00175 52.869C8.34633 52.869 7.99112 52.5028 7.97383 51.8505C7.96126 51.3602 7.97069 50.8713 7.97069 50.381C7.97383 49.4159 8.27089 49.111 9.2218 49.1094C11.9629 49.1078 14.704 49.1094 17.4452 49.1094C20.147 49.1094 22.8488 49.1078 25.5506 49.1094C26.4717 49.111 26.7829 49.4222 26.7876 50.3369ZM10.0108 45.7789C10.2356 45.4315 10.5782 45.3419 10.9759 45.3435C13.1103 45.3498 15.2431 45.3467 17.376 45.3467C19.49 45.3467 21.604 45.3451 23.718 45.3467C24.4677 45.3482 24.8905 45.683 24.9015 46.2693C24.9141 46.8603 24.4834 47.2265 23.7526 47.2265C19.5057 47.2296 15.2573 47.2249 11.0104 47.2312C10.5704 47.2312 10.1978 47.1385 9.96994 46.7235C9.79391 46.3997 9.81592 46.0791 10.0108 45.7789ZM25.755 39.7041C26.412 39.7057 26.7672 40.0703 26.7845 40.7226C26.7986 41.2696 26.7939 41.8181 26.786 42.3666C26.775 43.1211 26.4292 43.4621 25.6544 43.4621C22.8755 43.4669 20.0951 43.4637 17.3147 43.4637C14.6113 43.4637 11.9095 43.4653 9.20765 43.4637C8.28661 43.4637 7.9754 43.1525 7.97069 42.2378C7.96912 41.7474 7.96283 41.2586 7.97226 40.7682C7.98641 40.0719 8.33062 39.7057 9.01432 39.7041C14.5956 39.6994 20.1753 39.6994 25.755 39.7041ZM21.1891 28.4064C18.6318 28.3986 16.5618 26.4449 16.4455 23.9788C16.3261 21.4122 18.2436 19.2054 20.7615 19.0152C23.3093 18.8219 25.5208 20.6436 25.8131 23.2197C25.8587 23.6173 25.9483 23.7839 26.3507 23.7085C26.4261 23.6943 26.5078 23.7069 26.5849 23.7069C27.8312 23.7069 27.8768 23.6975 27.5971 22.4495C26.9982 19.7933 25.3778 18.0596 22.7356 17.3523C22.2468 17.2219 22.0928 17.038 22.0787 16.5413C21.9749 12.7786 24.243 9.41504 27.7417 8.19065C31.2451 6.96469 35.11 8.15449 37.3324 11.1329C37.5666 11.4457 37.6499 11.6469 37.3089 11.9974C36.0766 13.2595 35.4338 14.8093 35.2656 16.5633C35.2279 16.9484 35.2483 17.1999 35.7575 17.1323C36.1819 17.0757 36.7037 17.258 37.0228 17.0679C37.3183 16.8918 37.1784 16.3213 37.2586 15.9283C37.8385 13.1165 40.7353 11.0701 43.5078 11.5243C46.6576 12.0398 48.7779 14.7637 48.3834 17.7877C48.2278 18.9807 48.2278 18.9807 49.4302 19.0042C52.0188 19.0561 54.0747 21.1465 54.0699 23.7195C54.0652 26.2861 52 28.3907 49.4034 28.4033C44.6819 28.4253 39.9588 28.4096 35.2373 28.4096C30.5551 28.4111 25.8713 28.4206 21.1891 28.4064ZM59.0964 59.6385C55.2205 63.1419 49.2337 63.1529 45.3153 59.6684C45.0135 59.4012 45.034 59.178 45.1613 58.8652C46.1405 56.4275 48.5013 54.8023 51.1402 54.7583C51.4923 54.752 51.8443 54.7567 52.198 54.7567C53.8845 54.6514 55.4719 54.9406 56.8818 55.9339C57.9679 56.7009 58.7412 57.71 59.2425 58.936C59.3589 59.2157 59.3573 59.4028 59.0964 59.6385ZM48.429 49.0748C48.4415 47.0017 50.1532 45.3278 52.2373 45.3482C54.3073 45.3671 55.978 47.0866 55.9513 49.1723C55.9262 51.214 54.224 52.8785 52.1713 52.8706C50.0981 52.8627 48.4148 51.1558 48.429 49.0748ZM60.7766 57.6613C59.7141 55.5944 58.1172 54.1469 55.9497 53.3358C58.6783 50.6796 58.1769 47.0143 56.0786 45.0276C53.8609 42.9246 50.4141 42.9529 48.2309 45.0936C46.1546 47.1306 45.7727 50.755 48.4337 53.3296C46.2898 54.1484 44.6835 55.552 43.6273 57.6471C41.0732 54.0856 41.0543 48.3298 44.99 44.5058C48.8392 40.7682 54.8165 40.5937 58.9329 44.0908C62.8701 47.4339 63.7063 53.4019 60.7766 57.6613Z" fill="#6125E0"></path><path d="M53.5607 39.8094C53.2008 39.767 53.1096 39.6428 53.1237 39.3002C53.1505 38.6149 53.1316 37.928 53.1316 37.2428C53.1285 35.1696 52.0141 34.0568 49.9347 34.0568C45.5244 34.0553 41.1156 34.0505 36.7053 34.0663C36.3077 34.0663 36.1678 33.9924 36.1851 33.5649C36.2212 32.6643 36.2196 31.7605 36.1851 30.8599C36.1693 30.4167 36.2715 30.2784 36.7477 30.2799C40.8626 30.3019 44.979 30.2894 49.0954 30.2957C49.864 30.2957 50.6152 30.2092 51.3508 29.9782C54.1862 29.0854 56.0503 26.4166 55.945 23.4004C55.8444 20.499 53.7493 18.0078 50.8086 17.3005C50.5209 17.2313 50.3103 17.2172 50.2883 16.7897C50.0148 11.419 44.5247 8.07277 39.646 10.3015C39.25 10.4823 39.1085 10.3848 38.868 10.0752C36.2574 6.71635 32.8247 5.26091 28.6375 6.03736C23.4476 7.00083 20.0338 11.4222 20.224 16.7032C20.2397 17.1119 20.1234 17.203 19.7446 17.2863C16.829 17.9339 14.6852 20.4628 14.5657 23.3501C14.4086 27.1537 17.321 30.2579 21.1293 30.2846C25.3432 30.3145 29.557 30.2988 33.7709 30.2831C34.1842 30.2815 34.3524 30.3412 34.3273 30.8112C34.2817 31.6709 34.2848 32.5354 34.3257 33.3967C34.3493 33.9059 34.2361 34.0741 33.6781 34.071C29.0148 34.0443 24.3483 34.1056 19.6849 34.0333C17.6919 34.0018 16.2428 35.4132 16.4471 37.3072C16.499 37.796 16.2884 37.8306 15.8891 37.8274C13.5771 37.8117 11.2635 37.8102 8.95146 37.8227C7.31055 37.8322 6.11131 39.0455 6.09088 40.6912C6.08302 41.279 6.08617 41.8684 6.09088 42.4562C6.10031 43.6712 6.66614 44.5514 7.75222 45.0716C8.04613 45.2131 8.18759 45.3121 8.06342 45.6579C7.91253 46.0712 7.92668 46.5082 8.06185 46.9278C8.15301 47.2123 8.11057 47.3443 7.79622 47.4858C6.67557 47.9903 6.10031 48.8878 6.08931 50.1279C6.08617 50.6764 6.09245 51.225 6.08931 51.7735C6.08145 53.0624 6.65514 53.9912 7.8308 54.5115C8.12315 54.6388 8.14358 54.7818 8.06499 55.0333C7.93297 55.4545 7.91725 55.8868 8.05556 56.3049C8.15773 56.6192 8.09957 56.7528 7.77108 56.9037C6.67871 57.4067 6.1066 58.2884 6.09088 59.5049C6.08302 60.1321 6.07831 60.7592 6.09245 61.3863C6.13017 62.9203 7.33413 64.151 8.8713 64.1557C14.5359 64.1699 20.2004 64.1699 25.865 64.1557C27.432 64.1526 28.636 62.9203 28.6658 61.3486C28.6784 60.7607 28.669 60.1729 28.669 59.5851C28.669 58.3214 28.1 57.3988 26.9511 56.8911C26.6163 56.7434 26.6194 56.5941 26.6996 56.3269C26.8269 55.9041 26.8316 55.475 26.6964 55.0538C26.6053 54.7708 26.6446 54.6388 26.9605 54.4958C28.0796 53.9913 28.6564 53.0938 28.669 51.8537C28.6737 51.3051 28.6674 50.7566 28.669 50.2081C28.6753 48.9208 28.1032 47.9903 26.9259 47.4701C26.6367 47.3428 26.6131 47.2013 26.6917 46.9483C26.8253 46.5286 26.8395 46.0964 26.7027 45.6767C26.6006 45.3655 26.654 45.2288 26.9856 45.0763C28.078 44.5749 28.6501 43.6916 28.6674 42.4767C28.6768 41.8307 28.6831 41.1831 28.6627 40.5371C28.6234 39.3002 27.7747 38.255 26.5817 37.9217C26.2548 37.8306 25.9263 37.8196 25.5931 37.8196C23.3188 37.8196 21.046 37.8227 18.7717 37.8117C18.6177 37.8117 18.3851 37.9563 18.3143 37.6247C18.0817 36.526 18.5501 35.9382 19.688 35.9382H34.7988C39.8551 35.9382 44.9114 35.9366 49.9677 35.9382C50.9595 35.9382 51.2471 36.2321 51.2487 37.2396C51.2502 37.906 51.2282 38.574 51.2581 39.2389C51.2754 39.6239 51.1795 39.7733 50.763 39.8157C43.9385 40.5214 38.9293 47.1416 40.1081 53.8797C41.2539 60.4307 47.071 64.8049 53.6519 64.063C59.4846 63.406 64.1307 58.4534 64.4089 52.5971C64.7169 46.0932 60.0489 40.5843 53.5607 39.8094ZM26.7876 59.7941C26.7892 60.2641 26.7939 60.734 26.786 61.204C26.7719 61.9254 26.423 62.2759 25.6937 62.2791C23.6174 62.2853 21.5427 62.2806 19.4664 62.2806C16.0605 62.2806 12.6529 62.2822 9.24694 62.2806C8.28032 62.2806 7.97383 61.9804 7.97069 61.0327C7.96912 60.5627 7.96597 60.0928 7.97226 59.6228C7.98326 58.8637 8.32433 58.521 9.09448 58.5194C11.8545 58.5147 14.616 58.5179 17.376 58.5179H25.4815C26.4921 58.5179 26.7845 58.8071 26.7876 59.7941ZM9.85678 55.6777C9.86778 55.0915 10.2922 54.7567 11.0403 54.7551C13.1747 54.7535 15.3076 54.7551 17.4404 54.7551C19.5356 54.7551 21.6291 54.7535 23.7243 54.7551C24.4693 54.7567 24.8937 55.0962 24.9015 55.684C24.9109 56.275 24.4819 56.6349 23.7463 56.6349C19.4994 56.6381 15.2526 56.6381 11.0042 56.6349C10.2717 56.6349 9.8442 56.2703 9.85678 55.6777ZM26.7876 50.3369C26.7892 50.8258 26.7955 51.3161 26.786 51.805C26.7719 52.4997 26.4261 52.869 25.7424 52.869C20.1627 52.8753 14.5814 52.8753 9.00175 52.869C8.34633 52.869 7.99112 52.5028 7.97383 51.8505C7.96126 51.3602 7.97069 50.8713 7.97069 50.381C7.97383 49.4159 8.27089 49.111 9.2218 49.1094C11.9629 49.1078 14.704 49.1094 17.4452 49.1094C20.147 49.1094 22.8488 49.1078 25.5506 49.1094C26.4717 49.111 26.7829 49.4222 26.7876 50.3369ZM10.0108 45.7789C10.2356 45.4315 10.5782 45.3419 10.9759 45.3435C13.1103 45.3498 15.2431 45.3467 17.376 45.3467C19.49 45.3467 21.604 45.3451 23.718 45.3467C24.4677 45.3482 24.8905 45.683 24.9015 46.2693C24.9141 46.8603 24.4834 47.2265 23.7526 47.2265C19.5057 47.2296 15.2573 47.2249 11.0104 47.2312C10.5704 47.2312 10.1978 47.1385 9.96994 46.7235C9.79391 46.3997 9.81592 46.0791 10.0108 45.7789ZM25.755 39.7041C26.412 39.7057 26.7672 40.0703 26.7845 40.7226C26.7986 41.2696 26.7939 41.8181 26.786 42.3666C26.775 43.1211 26.4292 43.4621 25.6544 43.4621C22.8755 43.4669 20.0951 43.4637 17.3147 43.4637C14.6113 43.4637 11.9095 43.4653 9.20765 43.4637C8.28661 43.4637 7.9754 43.1525 7.97069 42.2378C7.96912 41.7474 7.96283 41.2586 7.97226 40.7682C7.98641 40.0719 8.33062 39.7057 9.01432 39.7041C14.5956 39.6994 20.1753 39.6994 25.755 39.7041ZM21.1891 28.4064C18.6318 28.3986 16.5618 26.4449 16.4455 23.9788C16.3261 21.4122 18.2436 19.2054 20.7615 19.0152C23.3093 18.8219 25.5208 20.6436 25.8131 23.2197C25.8587 23.6173 25.9483 23.7839 26.3507 23.7085C26.4261 23.6943 26.5078 23.7069 26.5849 23.7069C27.8312 23.7069 27.8768 23.6975 27.5971 22.4495C26.9982 19.7933 25.3778 18.0596 22.7356 17.3523C22.2468 17.2219 22.0928 17.038 22.0787 16.5413C21.9749 12.7786 24.243 9.41504 27.7417 8.19065C31.2451 6.96469 35.11 8.15449 37.3324 11.1329C37.5666 11.4457 37.6499 11.6469 37.3089 11.9974C36.0766 13.2595 35.4338 14.8093 35.2656 16.5633C35.2279 16.9484 35.2483 17.1999 35.7575 17.1323C36.1819 17.0757 36.7037 17.258 37.0228 17.0679C37.3183 16.8918 37.1784 16.3213 37.2586 15.9283C37.8385 13.1165 40.7353 11.0701 43.5078 11.5243C46.6576 12.0398 48.7779 14.7637 48.3834 17.7877C48.2278 18.9807 48.2278 18.9807 49.4302 19.0042C52.0188 19.0561 54.0747 21.1465 54.0699 23.7195C54.0652 26.2861 52 28.3907 49.4034 28.4033C44.6819 28.4253 39.9588 28.4096 35.2373 28.4096C30.5551 28.4111 25.8713 28.4206 21.1891 28.4064ZM59.0964 59.6385C55.2205 63.1419 49.2337 63.1529 45.3153 59.6684C45.0135 59.4012 45.034 59.178 45.1613 58.8652C46.1405 56.4275 48.5013 54.8023 51.1402 54.7583C51.4923 54.752 51.8443 54.7567 52.198 54.7567C53.8845 54.6514 55.4719 54.9406 56.8818 55.9339C57.9679 56.7009 58.7412 57.71 59.2425 58.936C59.3589 59.2157 59.3573 59.4028 59.0964 59.6385ZM48.429 49.0748C48.4415 47.0017 50.1532 45.3278 52.2373 45.3482C54.3073 45.3671 55.978 47.0866 55.9513 49.1723C55.9262 51.214 54.224 52.8785 52.1713 52.8706C50.0981 52.8627 48.4148 51.1558 48.429 49.0748ZM60.7766 57.6613C59.7141 55.5944 58.1172 54.1469 55.9497 53.3358C58.6783 50.6796 58.1769 47.0143 56.0786 45.0276C53.8609 42.9246 50.4141 42.9529 48.2309 45.0936C46.1546 47.1306 45.7727 50.755 48.4337 53.3296C46.2898 54.1484 44.6835 55.552 43.6273 57.6471C41.0732 54.0856 41.0543 48.3298 44.99 44.5058C48.8392 40.7682 54.8165 40.5937 58.9329 44.0908C62.8701 47.4339 63.7063 53.4019 60.7766 57.6613Z" fill="#6125E0"></path></svg>