<svg xmlns="http://www.w3.org/2000/svg" width="71" height="70" viewBox="0 0 71 70" fill="none"><path d="M63.8112 59.3829C59.9013 52.5328 51.7423 49.4109 44.2875 52.0577C40.2074 53.5063 37.2027 56.207 35.2336 60.0404C34.3877 61.6868 35.1227 63.4282 36.8687 64.0459C36.9538 64.0767 37.0325 64.1268 37.1137 64.1666H62.1683C64.5307 63.4551 64.9473 61.3734 63.8112 59.3829ZM61.3082 62.3147C57.4189 62.3173 53.5296 62.3147 49.6404 62.3147V62.3302C45.7898 62.3302 41.9379 62.3302 38.0874 62.3289C36.8197 62.3289 36.4032 61.6778 37.0312 60.5836C39.8257 55.7074 44.0128 53.0003 49.6894 53.0029C55.366 53.0054 59.5557 55.7036 62.3334 60.5977C62.9472 61.6778 62.5487 62.3135 61.3082 62.3147Z" fill="#6125E0"></path><path d="M57.357 40.2286C57.0746 37.0681 54.6283 34.3288 51.4083 33.5711C51.153 33.5108 50.8951 33.4607 50.6139 33.4016V26.9369C50.6139 26.5567 50.6333 26.1753 50.6036 25.7977C50.5611 25.2674 50.1587 24.9309 49.6429 24.9527C49.1542 24.9746 48.8137 25.3149 48.7776 25.835C48.7635 26.043 48.7725 26.2524 48.7725 26.4617V33.3914C48.5829 33.4402 48.4565 33.4812 48.3263 33.5044C46.4926 33.8383 44.9696 34.7154 43.7858 36.1422C43.5111 36.4722 43.2365 36.5839 42.8174 36.5826C31.4165 36.5724 20.0144 36.5749 8.6135 36.5749H7.9726C7.9597 36.3682 7.94165 36.2205 7.94165 36.0741C7.94036 29.0674 7.93907 22.0619 7.94165 15.0552C7.94165 14.2076 8.25759 13.8917 9.119 13.8879C10.9295 13.8802 12.7413 13.8853 14.5519 13.8853H16.9723C17.0162 14.0921 17.0574 14.2539 17.0845 14.4183C17.4701 16.7697 19.5372 18.4982 21.9487 18.4828C24.3872 18.4687 26.3679 16.7157 26.7613 14.2243C27.1146 11.9821 25.6406 9.67947 23.3917 8.96287C21.1118 8.23472 18.5894 9.27494 17.5526 11.4286C17.3141 11.9243 17.042 12.054 16.5223 12.0476C14.0257 12.0219 11.5279 12.0257 9.03002 12.0399C7.26851 12.0501 6.10276 13.1957 6.10018 14.9178C6.08857 24.2207 6.08213 33.5249 6.08341 42.8291C6.0847 44.7028 7.24143 45.8213 9.12674 45.8226C14.1792 45.8239 19.2316 45.8226 24.284 45.8226H24.9378V51.1136C24.6722 51.1136 24.4452 51.1136 24.2196 51.1149C23.5709 51.1175 22.921 51.0982 22.2749 51.1342C21.7411 51.1624 21.4084 51.5207 21.3877 52.001C21.3658 52.5006 21.7037 52.8781 22.2517 52.9565C22.3833 52.9757 22.5174 52.9719 22.6515 52.9719C25.3763 52.9796 28.1024 52.9873 30.8285 52.9899C31.9542 52.9912 33.0787 52.9783 34.2032 52.9719C34.701 52.9693 35.1162 52.8178 35.2748 52.3002C35.4683 51.6684 35.0272 51.1406 34.2741 51.1213C33.4437 51.1008 32.6119 51.1162 31.7634 51.1162V45.8226H32.4043C35.9505 45.8226 39.4968 45.829 43.043 45.8149C43.4557 45.8136 43.7329 45.9241 44.0218 46.2374C46.2746 48.6839 49.8131 49.4107 52.8178 48.0751C55.8727 46.7177 57.66 43.6279 57.357 40.2286ZM21.8803 10.5861C23.5748 10.5746 24.9533 11.9217 24.961 13.5976C24.9701 15.2594 23.5774 16.6489 21.9048 16.6489C20.2529 16.6489 18.8705 15.289 18.8576 13.6516C18.8447 11.959 20.1859 10.599 21.8803 10.5861ZM29.86 51.0777H26.8515V45.8624H29.86V51.0777ZM41.8837 43.931C31.0193 43.9322 20.1536 43.9322 9.28922 43.9322C8.21374 43.931 7.94165 43.6574 7.94165 42.5877V38.4512H42.4124C41.8386 40.2594 41.8296 42.047 42.5169 43.8937C42.2732 43.9091 42.0785 43.931 41.8837 43.931ZM49.6661 46.8757C46.4216 46.8641 43.8322 44.2649 43.8438 41.0299C43.8542 37.8039 46.4668 35.2214 49.7138 35.2278C52.9441 35.2355 55.5516 37.8527 55.54 41.0774C55.5284 44.3047 52.9119 46.8885 49.6661 46.8757Z" fill="#6125E0"></path><path d="M37.5586 14.1193C37.801 13.4566 37.6128 12.957 37.066 12.7541C36.5257 12.5525 36.0834 12.8145 35.8216 13.5028C35.5714 14.1591 35.329 14.8166 35.0865 15.4754C34.8518 16.1072 34.621 16.7404 34.3953 17.3581C32.4894 17.0165 31.9156 17.1898 30.5615 18.4818C30.136 18.8889 29.6937 19.2818 29.2913 19.7121C29.0205 20.001 28.7278 20.0948 28.3371 20.0922C25.268 20.0781 22.1988 20.0716 19.1297 20.0896C16.4372 20.105 14.2785 21.84 13.7536 24.4675C13.3319 26.5865 12.9812 28.7209 12.6511 30.8578C12.4344 32.2576 13.4158 33.3762 14.842 33.3839C18.178 33.4032 21.5141 33.4006 24.8501 33.3865C26.1732 33.38 27.0566 32.4914 27.0914 31.1622C27.1146 30.3082 27.0965 29.4529 27.0978 28.5989V26.2231C27.9012 26.2231 28.6401 26.2295 29.379 26.2218C30.608 26.2102 31.7066 25.8301 32.6145 24.9966C33.5404 24.1478 34.4585 23.2899 35.3393 22.3961C36.2703 21.4522 36.4483 20.3272 36.0228 19.0802C35.9467 18.8555 35.9351 18.5588 36.0137 18.3379C36.5102 16.9253 37.0454 15.5255 37.5586 14.1193ZM33.9247 21.2095C33.1239 21.9954 32.3063 22.7647 31.4926 23.5378C30.8839 24.1144 30.1476 24.3841 29.3133 24.3892C28.399 24.3943 27.4834 24.3905 26.5691 24.3905C25.5104 24.3918 25.2422 24.6525 25.2409 25.6914C25.2396 27.4379 25.2344 29.1845 25.2447 30.9297C25.2473 31.306 25.1738 31.5577 24.7238 31.5552C22.7417 31.5474 20.7597 31.55 18.7777 31.5462C18.7235 31.5462 18.6706 31.5153 18.5533 31.4807C18.7338 30.4032 18.9144 29.3245 19.0962 28.2457C19.171 27.7962 19.2548 27.3493 19.3206 26.8986C19.4031 26.3374 19.0988 25.8776 18.5984 25.7826C18.0891 25.685 17.6287 25.9816 17.5217 26.5544C17.2483 28.0261 17.0084 29.5055 16.7531 30.9811C16.7209 31.1635 16.6757 31.3433 16.6306 31.5526C16.0387 31.5526 15.4881 31.5577 14.9374 31.55C14.5763 31.5449 14.4242 31.3625 14.4887 30.9952C14.8446 28.9405 15.1592 26.878 15.559 24.8323C15.9136 23.0253 17.3424 21.9312 19.2638 21.9235C22.4477 21.9094 25.6303 21.9081 28.8129 21.9299C29.3906 21.9338 29.8304 21.7771 30.2314 21.3636C30.8672 20.7086 31.5377 20.0883 32.2057 19.4655C32.8092 18.9004 33.5442 18.8799 34.0304 19.3949C34.5501 19.9445 34.523 20.6226 33.9247 21.2095Z" fill="#6125E0"></path><path d="M54.6489 20.3797C54.6464 22.2817 53.5322 23.3964 51.6379 23.399C47.2727 23.4041 42.9076 23.4002 38.5425 23.4002C38.4097 23.4002 38.2743 23.4067 38.1428 23.3887C37.6399 23.3219 37.3497 23.0317 37.3252 22.5257C37.3007 22.0133 37.5844 21.7051 38.0667 21.5895C38.2485 21.5458 38.4458 21.5664 38.6367 21.5664C42.9257 21.5651 47.2134 21.5664 51.5024 21.5651C52.516 21.5651 52.801 21.2864 52.801 20.2924C52.8023 16.5142 52.8023 12.7373 52.801 8.95915C52.801 7.9626 52.5083 7.67236 51.5102 7.67236C44.8961 7.67108 38.282 7.67108 31.668 7.67236C30.6647 7.67236 30.3642 7.96645 30.3642 8.95273C30.3617 11.2117 30.363 13.4706 30.363 15.7283C30.363 15.8991 30.3733 16.0725 30.3513 16.2407C30.2907 16.7287 29.8871 17.0857 29.4242 17.0793C28.9496 17.0716 28.5653 16.7159 28.5305 16.215C28.506 15.8554 28.5202 15.4946 28.5202 15.1337C28.5202 13.007 28.515 10.8816 28.5228 8.75496C28.5292 6.99429 29.695 5.83849 31.4681 5.83592C34.8415 5.83079 38.215 5.83464 41.5897 5.83464C44.9245 5.83464 48.2605 5.83335 51.5966 5.83464C53.5193 5.83592 54.6476 6.9532 54.6502 8.87696C54.6554 12.7117 54.6567 16.5463 54.6489 20.3797Z" fill="#6125E0"></path><path d="M48.4653 11.0332C48.4692 11.6149 48.0668 11.9681 47.3498 11.9693C44.8352 11.9758 42.3219 11.9758 39.8073 11.9693C39.0929 11.9668 38.6906 11.6085 38.7009 11.0242C38.7099 10.4617 39.0929 10.1342 39.788 10.1291C41.0646 10.1201 42.3413 10.1265 43.6166 10.1265C44.8546 10.1265 46.0925 10.1214 47.3318 10.1278C48.0707 10.1316 48.4627 10.454 48.4653 11.0332Z" fill="#6125E0"></path><path d="M48.4643 14.6172C48.4669 15.1874 48.0826 15.5252 47.403 15.5303C46.3946 15.5367 45.3862 15.5316 44.3777 15.5316C43.35 15.5316 42.3222 15.5367 41.2945 15.5303C40.6252 15.5265 40.2177 15.1759 40.2151 14.6237C40.2125 14.0792 40.6329 13.7042 41.2893 13.7016C43.3255 13.6952 45.3617 13.6952 47.3966 13.7016C48.0723 13.7042 48.463 14.0509 48.4643 14.6172Z" fill="#6125E0"></path><path d="M48.4654 18.2107C48.4615 18.7873 48.0617 19.1225 47.3383 19.1327C46.6355 19.143 45.9327 19.1353 45.2299 19.1353C44.5258 19.1353 43.823 19.1443 43.1202 19.1327C42.4006 19.1212 42.0048 18.777 42.0073 18.1966C42.0099 17.6187 42.4006 17.286 43.1344 17.2809C44.54 17.2706 45.9456 17.2693 47.3512 17.2809C48.0785 17.2873 48.4705 17.6302 48.4654 18.2107Z" fill="#6125E0"></path><path d="M30.5576 41.2073C30.5447 41.6978 30.1798 42.06 29.6253 42.0895C29.2088 42.1126 28.7884 42.0947 28.3706 42.0947C27.9334 42.0934 27.495 42.1126 27.0591 42.0882C26.5123 42.0574 26.1474 41.6799 26.1448 41.1893C26.1409 40.709 26.5136 40.2878 27.0475 40.2698C27.9205 40.2403 28.7974 40.239 29.6717 40.2711C30.1991 40.2916 30.5718 40.7283 30.5576 41.2073Z" fill="#6125E0"></path></svg>