<svg width="50" height="50" viewBox="0 0 50 50" fill="none" xmlns="http://www.w3.org/2000/svg">
<path d="M28.7935 40.9808C28.7763 40.5908 28.4952 40.3798 28.0976 40.3707C27.6713 40.3627 27.2451 40.3696 26.7572 40.3696V39.8553C26.7572 37.8348 26.7595 35.8154 26.756 33.7949C26.7537 33.243 26.4132 32.9295 25.9356 33.0161C25.5813 33.0811 25.3905 33.3502 25.3893 33.8143C25.3871 35.8348 25.3882 37.8542 25.3882 39.8747V40.3422H7.6224V26.7072H8.1172C9.79927 26.7072 11.4813 26.7106 13.1634 26.7049C13.7451 26.7037 14.0936 26.2898 13.9256 25.8075C13.7988 25.446 13.5108 25.3377 13.1486 25.3389C11.1671 25.3434 9.18563 25.3411 7.20417 25.3411C6.42026 25.3411 6.22372 25.5384 6.22372 26.3252V40.324C6.15058 40.3502 6.13801 40.3582 6.1243 40.3582C5.74035 40.3616 5.35525 40.3616 4.97016 40.3684C4.43308 40.3787 4.18168 40.6216 4.17254 41.1484C4.16454 41.5896 4.16454 42.0309 4.17369 42.4711C4.20568 44.1107 5.35982 45.4676 6.98019 45.7652C7.21674 45.8086 7.46128 45.8291 7.70125 45.8302C13.5599 45.8336 19.4186 45.8348 25.2762 45.8314C27.1011 45.8291 28.4998 44.6717 28.7615 42.8964C28.8529 42.2692 28.8232 41.6182 28.7935 40.9808ZM24.0581 44.4232C23.9072 43.3194 23.7713 43.0811 23.3039 43.1039C22.8422 43.1256 22.7074 43.3878 22.6274 44.4368H10.3535C10.2769 43.389 10.1398 43.1176 9.67472 43.1062C9.33647 43.097 9.08165 43.2647 9.00394 43.5885C8.93995 43.8576 8.95823 44.1461 8.93881 44.4494C8.38459 44.4494 7.8418 44.4984 7.31044 44.438C6.30371 44.3251 5.56894 43.4676 5.54152 42.4494C5.5358 42.2259 5.54037 42.0013 5.54037 41.7561H27.3754C27.8782 43.5588 26.3732 44.7732 24.0581 44.4232Z" fill="#6F768E"/>
<path d="M30.8972 28.9398C29.7899 27.0014 28.6712 25.0687 27.5434 23.1428C27.4519 22.9877 27.2508 22.7973 27.1 22.7973C26.8589 22.7973 26.5161 22.876 26.4052 23.0459C26.2818 23.234 26.2738 23.6126 26.3835 23.819C26.9172 24.8224 27.5079 25.7962 28.0782 26.7813C28.4964 27.5054 28.9146 28.2294 29.3477 28.9809C27.6496 29.6183 25.9801 30.2272 24.3232 30.8703C21.2653 32.055 18.084 32.9523 15.3049 34.7881C14.6672 35.2089 13.8868 34.9637 13.4857 34.3081C13.0103 33.5316 12.5578 32.7414 12.1178 31.9455C11.8047 31.3822 11.8779 30.673 12.3875 30.3184C13.208 29.7471 14.0959 29.2705 14.9655 28.7471C15.0558 28.8976 15.1072 28.982 15.1563 29.0675C15.6625 29.941 16.1608 30.8189 16.6784 31.6855C16.899 32.0561 17.3046 32.1496 17.6372 31.9501C17.9548 31.7597 18.0497 31.3914 17.8634 31.0162C17.7697 30.8258 17.6543 30.6445 17.548 30.4598C17.0738 29.6388 16.5984 28.8178 16.1174 27.9843C18.9844 25.6251 21.8184 23.291 24.6957 20.9228C24.8088 21.1075 24.8843 21.242 24.97 21.3709C25.2156 21.738 25.5882 21.8429 25.9264 21.6445C26.2589 21.4495 26.3549 21.0641 26.147 20.6753C25.9733 20.3492 25.7813 20.0334 25.5939 19.7141C25.2282 19.0938 24.8443 19.0322 24.2775 19.4974C22.9142 20.6206 21.559 21.7529 20.1854 22.8623C17.4989 25.0322 14.9941 27.4472 11.8436 28.9889C11.8059 29.0071 11.7716 29.0345 11.7373 29.0595C11.0163 29.5955 10.5478 30.3264 10.6289 31.2044C10.6929 31.8953 10.4381 32.1815 9.90098 32.4963C9.0828 32.9763 8.79597 33.9637 9.10794 34.8486C9.41533 35.722 10.2289 36.2967 11.158 36.1884C11.5933 36.1382 12.0207 35.9284 12.4241 35.7334C12.6606 35.6194 12.7966 35.6034 13.0149 35.7779C13.7428 36.3651 14.5827 36.5145 15.4694 36.234C15.8694 36.1063 16.2385 35.8794 16.6499 35.6844C17.0807 36.4301 17.4852 37.1975 17.9594 37.9204C18.1845 38.2648 18.4999 38.5943 18.8507 38.8041C19.6061 39.2533 20.5888 39.0732 21.2139 38.4586C21.8641 37.8189 22.0206 36.8486 21.5738 36.023C21.1762 35.2876 20.7476 34.5692 20.3145 33.8121C21.4893 33.372 22.6331 32.9421 23.777 32.5134C25.9881 31.6855 28.2016 30.8589 30.4116 30.0276C30.9989 29.8064 31.1783 29.4301 30.8972 28.9398ZM10.6895 34.7437C10.5169 34.6422 10.3569 34.3674 10.3501 34.1667C10.3295 33.5897 10.8734 33.5122 11.2642 33.234C11.4996 33.6399 11.7168 34.0139 11.9442 34.4062C11.5293 34.6468 11.1728 35.0265 10.6895 34.7437ZM20.406 36.7995C20.5671 37.104 20.3705 37.4871 20.062 37.6182C19.7158 37.7653 19.3981 37.6935 19.2038 37.3731C18.733 36.6 18.2897 35.8098 17.812 34.9865C18.2257 34.7517 18.581 34.5487 18.9936 34.3149C19.4769 35.1564 19.9649 35.966 20.406 36.7995Z" fill="#6F768E"/>
<path d="M45.236 14.9773C45.2337 16.2829 44.371 17.1415 43.0626 17.1427C40.4115 17.1472 37.7592 17.1461 35.1081 17.1427C33.7769 17.1415 32.921 16.2829 32.9175 14.9511C32.9152 13.6558 32.913 12.3616 32.9198 11.0674C32.9232 10.6056 33.2146 10.308 33.6169 10.3171C34.0031 10.3263 34.2648 10.6136 34.2854 11.0549C34.2899 11.1541 34.2865 11.2533 34.2865 11.3525C34.2865 12.5338 34.2842 13.7151 34.2865 14.8952C34.2888 15.5395 34.5196 15.7766 35.1561 15.7766C37.7649 15.7789 40.3737 15.7789 42.9814 15.7778C43.6282 15.7766 43.867 15.544 43.867 14.9112C43.8693 12.308 43.8693 9.70483 43.8682 7.10165C43.867 6.45513 43.6362 6.21682 43.002 6.21682C40.3795 6.21454 37.7558 6.2134 35.1333 6.21682C34.5242 6.21682 34.2911 6.45855 34.2865 7.0777C34.2842 7.46082 34.2956 7.84623 34.2819 8.22935C34.2671 8.66264 33.9803 8.94885 33.5929 8.94428C33.2066 8.93858 32.9312 8.6501 32.921 8.21225C32.9095 7.77211 32.9107 7.33084 32.9198 6.88956C32.9427 5.74589 33.8146 4.86448 34.9618 4.85308C36.3297 4.8394 37.6987 4.84966 39.0665 4.84966C40.4069 4.84966 41.7473 4.8451 43.0866 4.8508C44.3653 4.85536 45.2337 5.71853 45.236 6.99674C45.2406 9.65694 45.2406 12.3171 45.236 14.9773Z" fill="#6F768E"/>
<path d="M45.2292 36.3902C45.18 37.4244 44.3321 38.299 43.2946 38.3081C40.4858 38.3309 37.677 38.332 34.8693 38.3081C33.7792 38.299 32.9313 37.3822 32.921 36.2716C32.9084 34.9056 32.9176 33.5396 32.9176 32.1747C32.9176 30.8509 32.9141 29.5282 32.9187 28.2055C32.9221 26.8771 33.7803 26.0265 35.1196 26.0242C37.757 26.022 40.3943 26.022 43.0317 26.0242C44.3733 26.0265 45.2315 26.8737 45.236 28.2021C45.2406 29.4678 45.2395 30.7335 45.236 32.0003C45.2349 32.5373 44.9778 32.8509 44.5527 32.8509C44.1264 32.8509 43.8705 32.5385 43.8693 32.0003C43.8671 30.7483 43.8705 29.4963 43.8671 28.2443C43.8659 27.632 43.6271 27.3914 43.0134 27.3914C40.3898 27.3891 37.7672 27.3891 35.1447 27.3914C34.5276 27.3914 34.2877 27.6286 34.2877 28.2409C34.2854 30.8589 34.2854 33.4757 34.2877 36.0937C34.2877 36.7095 34.5265 36.9512 35.1367 36.9512C37.7592 36.9546 40.3829 36.9546 43.0054 36.9524C43.6237 36.9512 43.8625 36.7129 43.8682 36.1051C43.8716 35.7209 43.8602 35.3366 43.8716 34.9535C43.8842 34.5145 44.1584 34.2283 44.5458 34.2237C44.9343 34.2192 45.2212 34.5054 45.2326 34.9398C45.2463 35.4233 45.2532 35.9079 45.2292 36.3902Z" fill="#6F768E"/>
<path d="M12.8537 10.9979C10.2586 10.9956 7.66348 10.9956 5.06837 10.9979C4.39645 10.9979 4.17134 11.2236 4.17134 11.8941C4.16905 13.6444 4.1702 15.3946 4.1702 17.1438C4.1702 18.8941 4.16905 20.6443 4.17134 22.3946C4.17134 23.0639 4.39874 23.2909 5.06951 23.2909C7.66462 23.292 10.2597 23.292 12.8548 23.2909C13.5245 23.2909 13.7519 23.0628 13.7519 22.3935C13.753 18.8929 13.753 15.3935 13.7519 11.893C13.7519 11.2236 13.5245 10.9979 12.8537 10.9979ZM12.3555 21.9009H5.56088V12.3958H12.3555V21.9009Z" fill="#6F768E"/>
<path d="M21.2356 4.16676C17.8508 4.17246 15.106 6.96264 15.122 10.3811C15.138 13.7243 17.9228 16.4712 21.2824 16.4609C24.6969 16.4495 27.4485 13.6912 27.4394 10.2899C27.4291 6.89536 24.6591 4.16105 21.2356 4.16676ZM21.2733 15.0937C18.6622 15.096 16.5024 12.9581 16.491 10.3583C16.4807 7.68099 18.6302 5.52821 21.311 5.53277C23.9198 5.53733 26.0635 7.68099 26.0715 10.2899C26.0784 12.9444 23.9358 15.0903 21.2733 15.0937Z" fill="#6F768E"/>
<path d="M39.071 29.4402C37.5581 29.4437 36.3365 30.674 36.3411 32.1882C36.3445 33.6751 37.5695 34.8975 39.0619 34.9032C40.576 34.9089 41.8113 33.6854 41.8135 32.1757C41.817 30.666 40.5828 29.4357 39.071 29.4402ZM39.0585 33.5349C38.3134 33.5246 37.7055 32.9066 37.7112 32.162C37.7158 31.4015 38.3523 30.788 39.1179 30.8063C39.8561 30.8256 40.4617 31.4608 40.4446 32.2008C40.4263 32.9454 39.8047 33.544 39.0585 33.5349Z" fill="#6F768E"/>
<path d="M41.8113 8.27507C41.8045 8.66047 41.5154 8.93185 41.0754 8.94439C40.7201 8.95579 40.3635 8.94667 40.007 8.94781C39.2871 8.95009 39.0757 9.16674 39.0768 9.89878C39.078 10.0231 39.078 10.1473 39.078 10.2979C40.1453 10.3492 40.4298 10.4985 40.4424 10.9797C40.4549 11.4678 40.1601 11.6297 39.0768 11.7026C39.0768 12.3457 39.0757 12.9934 39.078 13.6422C39.0791 14.0344 38.9054 14.3024 38.5203 14.3948C38.101 14.4951 37.7227 14.1656 37.7124 13.6855C37.6999 13.0345 37.709 12.3822 37.709 11.7072C37.1525 11.6228 36.3526 11.8668 36.3652 10.982C36.3777 10.1371 37.1422 10.3537 37.7101 10.3013C37.7101 10.0356 37.7033 9.79729 37.7113 9.55898C37.7513 8.50083 38.5912 7.63653 39.6448 7.58864C40.1281 7.56583 40.6138 7.57267 41.0983 7.58636C41.5314 7.59776 41.8182 7.88852 41.8113 8.27507Z" fill="#6F768E"/>
<path d="M35.6738 23.9911C34.6156 24.2123 33.5541 24.4232 32.4936 24.6364C32.4102 24.6535 32.3234 24.6535 32.2845 24.6581C31.8263 24.6558 31.5292 24.4187 31.4812 24.0526C31.4343 23.6992 31.6811 23.3787 32.0811 23.2967C33.1827 23.0709 34.2854 22.8485 35.3881 22.6307C35.8818 22.5327 36.2394 22.7277 36.3308 23.1279C36.4291 23.5543 36.1869 23.8839 35.6738 23.9911Z" fill="#6F768E"/>
<path d="M30.7601 16.1121C30.0653 17.079 29.3443 18.0277 28.6141 18.9695C28.5135 19.0995 28.309 19.1485 28.2347 19.1896C27.6176 19.193 27.244 18.6172 27.5388 18.1964C28.2313 17.2113 28.9603 16.25 29.7065 15.3048C29.9351 15.0151 30.2893 15.0117 30.5898 15.2455C30.8858 15.4747 30.9795 15.8088 30.7601 16.1121Z" fill="#6F768E"/>
<path d="M33.6992 19.1793C33.5346 19.4153 33.4444 19.6377 33.281 19.7654C32.4068 20.4438 31.5178 21.104 30.6253 21.7574C30.2665 22.0208 29.8825 21.9649 29.6414 21.6536C29.3912 21.3298 29.454 20.9387 29.83 20.6536C30.7007 19.9934 31.5783 19.3435 32.4536 18.6878C32.7016 18.5031 32.9827 18.4187 33.2398 18.6114C33.417 18.7437 33.5289 18.9615 33.6992 19.1793Z" fill="#6F768E"/>
<path d="M9.63089 15.0915C9.56134 15.0915 9.49178 15.0938 9.42222 15.0949C9.49178 15.0938 9.56134 15.0927 9.63089 15.0927C9.77912 15.0915 9.92735 15.0972 10.0756 15.0972C9.92735 15.0972 9.77912 15.0915 9.63089 15.0915Z" fill="#6F768E"/>
<path d="M11.0117 17.1439C11.0117 17.5304 10.7237 17.8109 10.2872 17.8234C9.84612 17.836 9.40389 17.8269 8.96166 17.8269C8.51943 17.8269 8.0772 17.836 7.63611 17.8234C7.19845 17.812 6.91163 17.5315 6.91163 17.1439C6.91163 16.7562 7.19731 16.4711 7.63497 16.4654C8.51943 16.454 9.40275 16.454 10.2872 16.4654C10.7249 16.4711 11.0105 16.7562 11.0117 17.1439Z" fill="#6F768E"/>
<path d="M11.0117 19.8965C10.9992 20.2807 10.7089 20.5521 10.2667 20.5567C9.39708 20.5658 8.52747 20.5658 7.65787 20.5567C7.1985 20.551 6.8991 20.2568 6.91167 19.8554C6.92424 19.47 7.21221 19.2055 7.65672 19.1964C8.09781 19.1861 8.54004 19.1941 8.98227 19.1941C9.40965 19.1941 9.83703 19.1861 10.2655 19.1964C10.7238 19.2066 11.0243 19.4962 11.0117 19.8965Z" fill="#6F768E"/>
<path d="M11.0117 14.4267C11.0037 14.7801 10.7386 15.0595 10.3581 15.088C10.2644 15.0949 10.1706 15.0971 10.0769 15.0971C9.92839 15.0971 9.77984 15.0914 9.63129 15.0926C9.56158 15.0926 9.49188 15.0937 9.42217 15.0949C9.26333 15.0971 9.1045 15.1006 8.9468 15.0892C8.54456 15.0618 8.2726 14.7687 8.2806 14.397C8.2886 14.0413 8.55142 13.7539 8.93423 13.7368C9.40274 13.7163 9.87469 13.7174 10.3443 13.7357C10.7466 13.7516 11.0197 14.055 11.0117 14.4267Z" fill="#6F768E"/>
<path d="M24.1895 9.63415C22.9028 8.99675 21.6184 8.35251 20.3317 7.71511C20.2071 7.6524 20.07 7.61363 20.006 7.58855C19.5158 7.57714 19.2324 7.88729 19.2301 8.37988C19.2255 9.65923 19.2244 10.9386 19.2301 12.2179C19.2335 12.9329 19.6975 13.2236 20.3397 12.9078C21.6287 12.275 22.9108 11.6273 24.1975 10.9899C24.4855 10.8474 24.6969 10.6478 24.6946 10.3092C24.6923 9.97052 24.4775 9.77668 24.1895 9.63415ZM20.6197 11.2453V9.38329C21.2356 9.69116 21.8138 9.97964 22.4834 10.3137C21.8149 10.6478 21.2379 10.9363 20.6197 11.2453Z" fill="#6F768E"/>
</svg>
