<svg width="50" height="50" viewBox="0 0 50 50" fill="none" xmlns="http://www.w3.org/2000/svg">
<path d="M42.7812 25.1437C42.7802 23.8526 41.8219 23.1561 40.5954 23.5451C39.8152 23.7932 39.0243 24.0169 38.2632 24.3126C36.9487 24.8215 35.6066 25.0674 34.1967 24.9561C33.796 24.9243 33.3911 24.9519 32.9702 24.9519C32.9967 22.7861 32.0013 21.3932 30.0031 20.7158C32.8653 18.0137 32.384 13.9578 29.9098 11.8281C27.3349 9.61255 23.0246 9.94648 20.9755 13.3271C18.973 10.0906 14.9786 9.61467 12.3592 11.5949C11.1009 12.5468 10.3185 13.8094 10.08 15.3677C9.75774 17.4688 10.4521 19.2391 11.9818 20.7147C9.95491 21.4038 8.96268 22.7978 8.99979 24.9519C8.32982 24.9519 7.68635 24.9508 7.04288 24.9519C5.89694 24.954 5.28846 25.5646 5.28634 26.7201C5.28422 27.7653 5.28528 28.8105 5.28528 29.8547C5.28634 31.6017 5.28104 33.3477 5.28846 35.0936C5.2927 36.0805 5.90754 36.6996 6.89235 36.7304C7.15631 36.7378 7.42133 36.7314 7.68635 36.7325H9.02099C9.02099 36.9625 9.01569 37.1321 9.02205 37.3028C9.09837 39.3795 10.7553 41.0502 12.8309 41.0576C18.267 41.0767 23.703 41.0746 29.1391 41.0576C30.9434 41.0523 32.4656 39.7781 32.8547 38.0056C32.9406 37.6102 32.9512 37.1979 33.0031 36.7325C33.9222 36.7325 34.8201 36.7176 35.7169 36.7388C36.054 36.7473 36.4017 36.7982 36.724 36.8968C38.0098 37.2933 39.2872 37.7215 40.5699 38.1297C41.8335 38.5325 42.7802 37.8509 42.7812 36.5343C42.7855 32.7371 42.7855 28.9399 42.7812 25.1437ZM8.98706 35.1615H6.86479V26.5462H8.98706V35.1615ZM26.1031 11.9903C28.5105 12.0009 30.4218 13.9472 30.3942 16.3568C30.3667 18.7239 28.4278 20.631 26.067 20.613C23.6818 20.596 21.7451 18.6455 21.7652 16.2815C21.7854 13.8921 23.7189 11.9786 26.1031 11.9903ZM11.5694 16.2815C11.5768 13.8995 13.5125 11.9808 15.9009 11.9903C18.2829 11.9998 20.2239 13.9493 20.2059 16.3175C20.1889 18.6974 18.2394 20.6267 15.8648 20.613C13.4775 20.5992 11.563 18.6688 11.5694 16.2815ZM31.4034 36.9636C31.4024 38.523 30.4356 39.494 28.8858 39.495C26.2547 39.4972 23.6235 39.4961 20.9924 39.4961C18.3613 39.4961 15.7302 39.4972 13.0991 39.495C11.5376 39.494 10.5676 38.5367 10.5655 36.9805C10.5613 32.894 10.5623 28.8084 10.5655 24.7218C10.5666 23.1497 11.545 22.1776 13.1224 22.1776C18.3571 22.1745 23.5928 22.1745 28.8285 22.1766C30.4303 22.1776 31.4024 23.1487 31.4034 24.7441C31.4056 28.818 31.4056 32.8908 31.4034 36.9636ZM35.5568 35.1466H32.9957V26.5452H35.5568V35.1466ZM41.2049 36.6943C39.8862 36.2682 38.6183 35.8622 37.3558 35.4403C37.2635 35.4095 37.148 35.2664 37.148 35.1752C37.1363 32.2282 37.1385 29.2801 37.1385 26.3088C38.489 25.8709 39.8257 25.4384 41.2049 24.9911V36.6943Z" fill="#6F768E"/>
<path d="M23.8716 29.3893C22.6059 28.5042 21.3285 27.6349 20.0373 26.7858C19.7416 26.5907 19.3716 26.508 19.0356 26.3734C18.0455 26.4572 17.3024 27.2088 17.296 28.2148C17.2854 29.9459 17.2939 31.677 17.2917 33.4081C17.2917 34.13 17.578 34.6929 18.2214 35.0364C18.8522 35.3735 19.4713 35.2971 20.0543 34.9017C21.3222 34.0431 22.5932 33.1876 23.8515 32.313C24.9466 31.5529 24.9603 30.1505 23.8716 29.3893ZM22.8762 31.0939C21.6709 31.906 20.473 32.7296 19.2699 33.5448C18.9582 33.7568 18.8681 33.7176 18.867 33.3604C18.8628 31.6685 18.8649 29.9756 18.867 28.2826C18.867 28.2073 18.8914 28.1331 18.9147 28.0006C19.0568 28.0579 19.1808 28.0854 19.2805 28.1522C20.4847 28.9664 21.6826 29.7879 22.8879 30.601C23.1603 30.7855 23.1391 30.9169 22.8762 31.0939Z" fill="#6F768E"/>
<path d="M15.866 13.5346C14.3522 13.5474 13.1235 14.793 13.1299 16.3078C13.1352 17.8248 14.3723 19.0629 15.8819 19.064C17.4094 19.0651 18.6487 17.8099 18.6391 16.2718C18.6296 14.7612 17.3734 13.5219 15.866 13.5346ZM15.8691 17.4908C15.2289 17.4855 14.6872 16.9449 14.6819 16.3057C14.6776 15.6548 15.2395 15.0993 15.8956 15.1046C16.5455 15.111 17.0681 15.6378 17.0713 16.293C17.0745 16.9651 16.5412 17.4961 15.8691 17.4908Z" fill="#6F768E"/>
<path d="M26.0914 13.5351C24.5733 13.5298 23.3182 14.7902 23.3235 16.3125C23.3288 17.8156 24.5744 19.0602 26.0765 19.0644C27.5956 19.0686 28.8582 17.8019 28.8465 16.287C28.8348 14.7775 27.5967 13.5404 26.0914 13.5351ZM26.0797 17.4913C25.4097 17.4891 24.8861 16.9496 24.8956 16.2743C24.9062 15.6245 25.4394 15.1029 26.0903 15.105C26.7338 15.1082 27.2744 15.6435 27.2829 16.2859C27.2914 16.9443 26.7422 17.4944 26.0797 17.4913Z" fill="#6F768E"/>
</svg>
