<svg width="160" height="36" viewBox="0 0 160 36" fill="none" xmlns="http://www.w3.org/2000/svg">
<g clip-path="url(#clip0_12_399)">
<path d="M47.1932 0H0.276585C0.123831 0 0 0.123872 0 0.276677V9.50648C0 9.65928 0.123831 9.78316 0.276585 9.78316H47.1932C47.3459 9.78316 47.4698 9.65928 47.4698 9.50648V0.276677C47.4698 0.123872 47.3459 0 47.1932 0Z" fill="#FF7700"/>
<path d="M33.6177 13.1078H0.276585C0.123831 13.1078 0 13.2317 0 13.3845V22.6143C0 22.7671 0.123831 22.891 0.276585 22.891H33.6177C33.7704 22.891 33.8942 22.7671 33.8942 22.6143V13.3845C33.8942 13.2317 33.7704 13.1078 33.6177 13.1078Z" fill="#FF7700"/>
<path d="M47.1932 26.2169H0.276585C0.123831 26.2169 0 26.3407 0 26.4935V35.7233C0 35.8761 0.123831 36 0.276585 36H47.1932C47.3459 36 47.4698 35.8761 47.4698 35.7233V26.4935C47.4698 26.3407 47.3459 26.2169 47.1932 26.2169Z" fill="#FF7700"/>
<path d="M62.5757 25.221H73.6482V28.3079H58.9309V8.67529H73.2608V11.7622H62.5757V25.221ZM62.2956 16.8361H72.0504V19.8373H62.2956V16.8361Z" fill="#010A27"/>
<path d="M83.5733 28.5023C82.1348 28.5023 80.8394 28.1845 79.6874 27.5488C78.5522 26.9276 77.6147 25.9993 76.9821 24.8701C76.3299 23.7214 76.0038 22.3708 76.0038 20.8182C76.0038 19.2855 76.331 17.9394 76.9856 16.7801C77.615 15.6451 78.5529 14.7115 79.6908 14.0877C80.8829 13.4416 82.2211 13.1133 83.5767 13.1342C84.7505 13.1152 85.9093 13.4004 86.9403 13.9619C87.9309 14.513 88.7156 15.3544 89.2947 16.4863C89.8738 17.6182 90.1637 19.0621 90.1645 20.8182C90.1645 22.5576 89.8841 23.997 89.3233 25.1365C88.7625 26.2759 87.9914 27.122 87.01 27.6746C86.0271 28.2264 84.8816 28.5023 83.5733 28.5023ZM83.9939 25.5298C84.7834 25.5438 85.5624 25.3465 86.25 24.9581C86.9253 24.5644 87.479 23.9919 87.8501 23.3038C88.2628 22.5427 88.4707 21.6874 88.4535 20.8217C88.4535 19.8682 88.2524 19.0408 87.8501 18.3396C87.4728 17.6634 86.92 17.1017 86.25 16.7138C85.5576 16.3365 84.7818 16.1388 83.9933 16.1388C83.2049 16.1388 82.429 16.3365 81.7366 16.7138C81.0671 17.1023 80.5144 17.6639 80.1366 18.3396C79.7343 19.04 79.5335 19.8674 79.5342 20.8217C79.5166 21.6873 79.7242 22.5426 80.1366 23.3038C80.5083 23.9914 81.0618 24.5637 81.7366 24.9581C82.4247 25.3463 83.204 25.5437 83.9939 25.5298ZM88.5655 28.3057V24.7718L88.649 20.7897L88.3667 16.8064V7.49774H91.8994V28.3057H88.5655Z" fill="#010A27"/>
<path d="M102.831 28.5023C101.56 28.5023 100.439 28.2637 99.4678 27.7866C98.4977 27.3121 97.699 26.5478 97.182 25.5995C96.6303 24.6185 96.3545 23.38 96.3545 21.8838V13.3308H99.8907V21.4356C99.8907 22.7626 100.199 23.758 100.815 24.4219C101.432 25.0858 102.292 25.4177 103.395 25.4177C104.145 25.435 104.888 25.2611 105.553 24.9124C106.173 24.5683 106.671 24.0392 106.977 23.3986C107.313 22.7256 107.481 21.8937 107.481 20.9028V13.3308H110.985V28.3079H107.653V24.2378L108.242 25.4954C107.745 26.4416 106.973 27.2143 106.027 27.7111C105.045 28.2395 103.946 28.5116 102.831 28.5023Z" fill="#010A27"/>
<path d="M134.481 13.1341C135.677 13.1341 136.738 13.3681 137.663 13.8361C138.595 14.3105 139.354 15.0655 139.834 15.9946C140.358 16.9672 140.619 18.2103 140.619 19.7241V28.3056H137.15V20.1734C137.15 18.8464 136.855 17.8555 136.266 17.2008C135.677 16.5461 134.839 16.2187 133.752 16.2187C133.041 16.205 132.34 16.3794 131.718 16.7241C131.119 17.0729 130.641 17.5961 130.347 18.2241C130.02 18.8887 129.857 19.7161 129.857 20.7061V28.3056H126.381V20.1734C126.381 18.8464 126.087 17.8555 125.498 17.2008C124.909 16.5461 124.07 16.2187 122.983 16.2187C122.273 16.2048 121.572 16.3792 120.951 16.7241C120.352 17.0729 119.874 17.5961 119.58 18.2241C119.252 18.8887 119.088 19.7161 119.088 20.7061V28.3056H115.613V13.3285H118.949V17.3392L118.332 16.133C118.826 15.1898 119.593 14.4176 120.533 13.9173C121.495 13.3952 122.602 13.1334 123.854 13.1318C125.256 13.1318 126.471 13.4779 127.499 14.1699C128.527 14.862 129.209 15.9291 129.545 17.3712L128.199 16.867C128.666 15.7641 129.46 14.8666 130.582 14.1745C131.705 13.4824 133.004 13.1356 134.481 13.1341Z" fill="#010A27"/>
<path d="M149.619 28.5023C148.498 28.5023 147.517 28.3118 146.676 27.9307C145.89 27.5906 145.217 27.0358 144.733 26.3301C144.275 25.6463 144.035 24.8391 144.047 24.016C144.036 23.2179 144.244 22.432 144.649 21.7443C145.052 21.072 145.711 20.5385 146.627 20.1437C147.542 19.7489 148.757 19.5522 150.27 19.5538H154.613V21.8815H150.522C149.344 21.8815 148.544 22.072 148.122 22.4531C147.918 22.6334 147.756 22.856 147.647 23.1054C147.538 23.3548 147.484 23.625 147.491 23.8971C147.484 24.1881 147.55 24.4761 147.682 24.7355C147.814 24.9949 148.008 25.2175 148.247 25.3834C148.752 25.7576 149.453 25.9448 150.35 25.9448C151.16 25.9574 151.958 25.7542 152.662 25.356C153.345 24.9631 153.874 24.35 154.163 23.617L154.723 25.7207C154.389 26.5959 153.753 27.3221 152.929 27.7672C152.068 28.2573 150.964 28.5023 149.619 28.5023ZM154.329 28.3057V25.2496L154.161 24.6323V19.332C154.161 18.3038 153.848 17.5034 153.221 16.931C152.595 16.3586 151.646 16.0736 150.375 16.0759C149.547 16.0767 148.724 16.2091 147.936 16.468C147.184 16.7028 146.481 17.0736 145.862 17.5621L144.491 15.0103C145.359 14.3705 146.338 13.8951 147.378 13.6075C148.499 13.2876 149.66 13.1271 150.826 13.1307C153.012 13.1307 154.694 13.6544 155.872 14.7016C157.05 15.7489 157.638 17.3567 157.637 19.5252V28.3022L154.329 28.3057Z" fill="#010A27"/>
</g>
<defs>
<clipPath id="clip0_12_399">
<rect width="160" height="36" fill="white"/>
</clipPath>
</defs>
</svg>
