<svg xmlns="http://www.w3.org/2000/svg" width="49" height="48" viewBox="0 0 49 48" fill="none"><path d="M16.1051 41.5462H10.4001C7.1577 41.5462 4.5 38.9062 4.5 35.6462V25.3698C4.5 24.6434 5.1024 24.041 5.82883 24.041H16.1051C19.4715 24.041 22.0052 26.5747 22.0052 29.941V35.6462C21.9874 39.0125 19.4538 41.5462 16.1051 41.5462ZM7.15767 26.7164V35.6639C7.15767 37.4534 8.61056 38.9062 10.4001 38.9062H16.1051C17.9832 38.9062 19.3475 37.542 19.3475 35.6639V29.9588C19.3475 28.0807 17.9832 26.7164 16.1051 26.7164H7.15767Z" fill="#6F768E"></path><path d="M5.82883 26.7165C5.1024 26.7165 4.5 26.1141 4.5 25.3876C4.5 14.314 6.75019 11.9931 13.1817 8.18374C13.8196 7.81167 14.6345 8.0243 15.0066 8.64442C15.3787 9.28226 15.1661 10.0972 14.5459 10.4693C8.80538 13.8711 7.15767 15.2885 7.15767 25.3876C7.15767 26.1141 6.55526 26.7165 5.82883 26.7165Z" fill="#6F768E"></path><path d="M38.6 41.5462H32.8949C29.6525 41.5462 26.9949 38.9062 26.9949 35.6462V25.3698C26.9949 24.6434 27.5973 24.041 28.3237 24.041H38.6C41.9664 24.041 44.5 26.5747 44.5 29.941V35.6462C44.5 39.0125 41.9664 41.5462 38.6 41.5462ZM29.6703 26.7164V35.6639C29.6703 37.4534 31.1231 38.9062 32.9126 38.9062H38.6177C40.4958 38.9062 41.8601 37.542 41.8601 35.6639V29.9588C41.8601 28.0807 40.4958 26.7164 38.6177 26.7164H29.6703Z" fill="#6F768E"></path><path d="M28.3375 26.7165C27.6111 26.7165 27.0087 26.1141 27.0087 25.3876C27.0087 14.314 29.2588 11.9931 35.6904 8.18374C36.3282 7.81167 37.1432 8.0243 37.5153 8.64442C37.8874 9.28226 37.6748 10.0972 37.0546 10.4693C31.3141 13.8711 29.6663 15.2885 29.6663 25.3876C29.6663 26.1141 29.0639 26.7165 28.3375 26.7165Z" fill="#6F768E"></path></svg>